<svg xmlns="http://www.w3.org/2000/svg" viewBox="0 0 383.3 377.3"><defs><style>.cls-1{fill:#e0e0e0}.cls-2{fill:#fafbfb}.cls-3{fill:#ebebeb}.cls-4{fill:#f5f5f5}.cls-5{fill:#fff}.cls-7{fill:#393f42}.cls-8{fill:#f3757a}.cls-9{fill:#263238}.cls-10{opacity:.3}.cls-11{fill:#455b64}.cls-12{fill:#6f453a}.cls-13{fill:#af7462}.cls-14{opacity:.2}.cls-15{fill:#d71f27}.cls-17{fill:#fbbf9e}.cls-18{fill:#f7996e}</style></defs><g id="Layer_2" data-name="Layer 2"><g id="Layer_1-2" data-name="Layer 1"><path class="cls-1" d="M65.5 313.4H31.7l-4.3-45.6h42.2l-4.1 45.6zM314.3 241.1a25.4 25.4 0 0 0-11-3.8 7.2 7.2 0 0 0-5.2 1 1 1 0 0 0-.5 1 1.8 1.8 0 0 0 .5.7 15.7 15.7 0 0 0 16.2 1.1M314 240.8a47.1 47.1 0 0 1-7.1-6.3 19.3 19.3 0 0 1-4.5-8.3 3.1 3.1 0 0 1 .4-2.8 28.7 28.7 0 0 1 11.2 17.4"></path><path class="cls-1" d="M314.2 241.1a27 27 0 0 1 .1-9.4 12.4 12.4 0 0 1 5-7.7c1 2.3.6 4.9-.1 7.3a36.7 36.7 0 0 1-4.9 10.4M319.8 251.1a15.9 15.9 0 0 0-8.8 4.5 17.6 17.6 0 0 0-5.1 8.7c3.3-.2 6.1-2.5 8.2-5.2s3.4-5.5 5.7-8M321 252.7a21.9 21.9 0 0 1 2.5-20.6 26.5 26.5 0 0 1-2.5 20.6M328.3 261.4a15 15 0 0 0-8.8 2.1 15.2 15.2 0 0 0-6.2 6.6c-.2.4-.4.8-.1 1.2s.6.3 1 .3c3-.2 5.6-2 7.8-4a73.6 73.6 0 0 1 6.3-6.2M328.1 260.9a28 28 0 0 1-.3-15.7c.6-2 1.5-4.1 3.3-5.1.2-.1.3-.2.5-.1s.3.2.3.4a8.8 8.8 0 0 1 .8 4.5 36.5 36.5 0 0 1-.7 4.6c-.6 2.8-.9 5.8-2.4 8.2a16.2 16.2 0 0 0-1 1.8l-.6 1.3M347.6 263.8a20.5 20.5 0 0 1 3.5-16.6c.3-.3.6-.7 1-.6s.8.9.8 1.5a30.4 30.4 0 0 1-5.3 15.7M349.3 265a24.7 24.7 0 0 0 19.9-4 15.9 15.9 0 0 0-10.7-1.3 15.4 15.4 0 0 0-9.2 5.3M350.8 261.4a22.7 22.7 0 0 1 18-10.4 10.8 10.8 0 0 1-5.9 6.5 29.2 29.2 0 0 1-8.6 2.5 6.1 6.1 0 0 0-3.5 1.4M347.9 243.7a55.7 55.7 0 0 0 2.3-10.6 16.9 16.9 0 0 0-2.1-10.4 23.1 23.1 0 0 0-.3 21.4M359.7 237.7a28.6 28.6 0 0 1 20.8-14.2 23 23 0 0 1-20.8 14.2M357.1 239.2c6.1.9 11.3 4.8 16.9 7.2a7.2 7.2 0 0 0 3.8.7 3.4 3.4 0 0 0 2.9-2.3 3.4 3.4 0 0 0-1-3 8.1 8.1 0 0 0-2.8-1.7 31 31 0 0 0-19.3-1.1"></path><path class="cls-1" d="M353.6 243.4c1.4.4 1.8 1.1 2.9 2a32.6 32.6 0 0 0 12.8 6.6c.5.1 1.1.2 1.4-.3s-.1-.9-.3-1.2a17.6 17.6 0 0 0-7.8-5.3c-3-1.1-5.5-2.4-9.1-2.1M349.6 217.7a24 24 0 0 0 18.6 6.3 1.1 1.1 0 0 0 .8-.3c.5-.5-.1-1.3-.6-1.7a21.3 21.3 0 0 0-18.8-4.3"></path><path class="cls-1" d="M354.3 216a25.8 25.8 0 0 1 23.3-3.8 18.8 18.8 0 0 1-11.1 4.9 38.6 38.6 0 0 1-12.2-1.1M352.5 204.1c-.5-5.5-.2-9.8-.6-15.3 0-.4-.1-1-.5-1.1s-1 .5-1.2 1.1a17.8 17.8 0 0 0 2.3 15.2"></path><path class="cls-1" d="M352.1 204.7a33.1 33.1 0 0 0 9.1-8.8c1.8-2.4 3.3-5.4 2.9-8.4a8.4 8.4 0 0 0-6.5 3.2 18.3 18.3 0 0 0-3.3 6.7c-.9 2.5-1.4 5-2.2 7.3M361 202.3a74.8 74.8 0 0 0 22.3-13.1c-2.7-1.1-5.7-.4-8.4.6a26.2 26.2 0 0 0-14 12.4M354.6 207.7a51.4 51.4 0 0 0 12.4.1 60.5 60.5 0 0 0 11.6-3.8 1.6 1.6 0 0 0 .8-.6 1 1 0 0 0-.3-1l-1-.5a22.2 22.2 0 0 0-12.5.7 58.1 58.1 0 0 0-11 5.1M331.1 217.9a22 22 0 0 1-.2-18.1c1.7 2.6 1.9 5.9 1.6 9s-1.3 6.3-1.3 9.4M319.8 212.2a25.7 25.7 0 0 0-18.8 8 18.5 18.5 0 0 0 10.3-1.9 52 52 0 0 0 8.8-5.9M312.3 209.7c-3.4-.3-6.7-.7-10 .3a11.8 11.8 0 0 0-7.6 6.5 17.1 17.1 0 0 0 9.4-1.8 58 58 0 0 0 8.2-5M323.5 209.8c-3.1-2-6.3-4.1-9.8-4.9s-7.8-.2-10.3 2.5c2.9 1.7 6.4 1.9 9.8 1.9s7.5 0 10.7 1.1"></path><path class="cls-1" d="M323.5 210a23 23 0 0 1-5.2-21.6 33 33 0 0 1 5.2 21.6M338 195.3c1-2.3 1.7-4.7 2.6-7.1a19 19 0 0 1 3.7-6.5 9.5 9.5 0 0 1 6.5-3.4 26.6 26.6 0 0 1-12.7 17.1M335.4 198.4c-1.6-2.3-3.5-5.3-5.8-7a9.8 9.8 0 0 0-7.9-2.1 18.6 18.6 0 0 0 13.7 9.1M335.9 195.5a35.5 35.5 0 0 1-2.6-8.4 13.5 13.5 0 0 1 1.3-8.6 19.5 19.5 0 0 1 1.4 17.1M338 178.5c1.6-5.4 6.6-9.4 12-11.3a5.1 5.1 0 0 1 2.1-.3 1.7 1.7 0 0 1 1.5 1.3c.2.9-.6 1.8-1.3 2.4a41.7 41.7 0 0 1-14.3 7.9M338.1 174a37 37 0 0 1 1.6-10.4 13.1 13.1 0 0 1 6.5-7.9c.5 3.5-1 7.1-2.9 10.1s-4.1 5.9-5.3 9.3M338 176.5c-1.4-4-1.5-9-3.9-12.4s-4.3-4-5.7-6.6a10.2 10.2 0 0 0 .3 7.5 21.1 21.1 0 0 0 4.4 6.3 60.2 60.2 0 0 1 4.9 5.2"></path><path class="cls-1" d="M338 292.9c-.1 0-.2-26.4-.2-58.9s.1-58.9.2-58.9.2 26.4.2 58.9-.1 58.9-.2 58.9Z"></path><path class="cls-1" d="m361.1 213.9-1 .4-2.7.9c-2.3.8-5.5 1.9-8.9 3.3s-6.6 2.6-8.4 4.2a7.2 7.2 0 0 0-1.7 2.2 2.5 2.5 0 0 0-.3 1v-.3a4.5 4.5 0 0 1 .2-.8 4.9 4.9 0 0 1 1.7-2.4 15.7 15.7 0 0 1 3.7-2.3l4.8-2.1a93 93 0 0 1 9-3.2l2.8-.8Z"></path><path class="cls-1" d="m368.6 195.3-.3.3-.8.8-3.2 2.9-10.5 9.4a140.2 140.2 0 0 0-10.1 9.8l-2.9 3.2-.8.9-.3.3.2-.3.7-.9 2.8-3.2a120.9 120.9 0 0 1 10.1-9.9l10.6-9.3 3.2-2.8.9-.7Z"></path><path class="cls-1" d="m349.4 212.4 1.6-4.5 1.4-4.6a14 14 0 0 1-1 4.7 21 21 0 0 1-1.3 3.2ZM338 228.3l-.6-.7-1.6-2.1c-.6-.9-3.2-4.2-5.4-6.8l-5.5-6.8-1.7-2.1-.6-.8.7.7 1.8 2 5.5 6.7 5.3 6.9a14.4 14.4 0 0 1 1.5 2.2c.5.5.7.8.6.8Z"></path><path class="cls-1" d="M333 221.9a8.4 8.4 0 0 1-2.1-4 14.1 14.1 0 0 1-.5-4h.2l-.2.5v-.5h.2a23.2 23.2 0 0 0 .7 3.9 28.5 28.5 0 0 0 1.7 4.1ZM326.5 213.6a9.2 9.2 0 0 0-1.5-.9 8.8 8.8 0 0 0-4.1-.3 19.2 19.2 0 0 0-4.1.7l-1.7.4 1.6-.7a18.4 18.4 0 0 1 4.2-.8 9 9 0 0 1 4.2.5 3.8 3.8 0 0 1 1.4 1.1ZM324.9 211.7a14.5 14.5 0 0 1-2.3-.8 23.4 23.4 0 0 0-5.7-1.2 20.7 20.7 0 0 0-5.8.3l-2.4.5.6-.3 1.7-.5a20.3 20.3 0 0 1 5.8-.4 19.2 19.2 0 0 1 5.7 1.3l1.6.7ZM338 203.2l-1.7-5.7a54.5 54.5 0 0 1-1.3-5.8l1.7 5.7a54.5 54.5 0 0 1 1.3 5.8Z"></path><path class="cls-1" d="M338.1 203.2a23.6 23.6 0 0 0-1.8-3.4 17.2 17.2 0 0 0-2.7-2.8l1 .5a9.4 9.4 0 0 1 2 2 7.6 7.6 0 0 1 1.5 3.7ZM338 278.9l-.4-1.8a22.1 22.1 0 0 0-1.8-4.6 62.1 62.1 0 0 0-9.4-13.2c-2.1-2.4-4.1-4.6-5.8-6.8a67.9 67.9 0 0 1-4.2-6 32.6 32.6 0 0 1-2.1-4.5l-.4-1.3a1.8 1.8 0 0 1-.1-.5s.2.6.7 1.7a25.3 25.3 0 0 0 2.2 4.4 55.4 55.4 0 0 0 4.2 5.9l5.8 6.8a60.2 60.2 0 0 1 9.3 13.3 27.5 27.5 0 0 1 1.7 4.6 10.5 10.5 0 0 1 .2 1.3 4.2 4.2 0 0 1 .1.7ZM358.9 255.3l-1.1.6a19.8 19.8 0 0 0-2.8 1.9 36 36 0 0 0-3.7 3.4c-1.3 1.4-2.7 3-4 4.7-2.7 3.4-5.3 6.5-6.8 8.9l-1.7 2.9-.6 1.1a.8.8 0 0 1 .1-.3l.4-.9a32.1 32.1 0 0 1 1.6-3 85 85 0 0 1 6.8-9c1.4-1.7 2.7-3.3 4.1-4.7a28.3 28.3 0 0 1 3.8-3.4 23.6 23.6 0 0 1 2.9-1.8l.9-.4Z"></path><path class="cls-1" d="M359.3 263a8 8 0 0 1-2.3.3 29.4 29.4 0 0 0-5.5 1.1 15.8 15.8 0 0 0-4.9 2.6 14.6 14.6 0 0 0-1.7 1.6l.3-.5a6.7 6.7 0 0 1 1.2-1.2 15.3 15.3 0 0 1 5-2.7 22.1 22.1 0 0 1 5.6-1 5.1 5.1 0 0 1 2.3-.2ZM345.5 267.7c-.1-.1.9-1.7 1.7-3.8s.9-4 1.1-4v1.2a13.3 13.3 0 0 1-.7 2.9 17.1 17.1 0 0 1-1.3 2.7l-.8 1ZM365.6 234.8l-.4.2-1.1.5-1.7.8-2.2 1.2-1.3.7-1.3.8-2.9 2a67.2 67.2 0 0 0-6 5.2 53.6 53.6 0 0 0-5 6.1l-1.9 2.9a10 10 0 0 0-.8 1.4l-.7 1.3-1.1 2.2a10.3 10.3 0 0 0-.7 1.7 11.7 11.7 0 0 1-.5 1.1l-.2.4a1.6 1.6 0 0 1 .1-.4 7.6 7.6 0 0 1 .4-1.1l.7-1.8 1-2.3a8.3 8.3 0 0 1 .7-1.3 10 10 0 0 1 .8-1.4l1.8-3a64.8 64.8 0 0 1 5-6.2 57 57 0 0 1 6-5.3 24 24 0 0 1 2.9-1.9l1.3-.8 1.3-.7 2.2-1.1a10.3 10.3 0 0 1 1.7-.7l1.1-.4Z"></path><path class="cls-1" d="M349.1 245.9a3 3 0 0 1 .9-1.4 5.5 5.5 0 0 1 3.7-1.4 9.4 9.4 0 0 1 3.8.8l1.5.7-1.5-.5a9.9 9.9 0 0 0-3.7-.6 5.6 5.6 0 0 0-3.5 1.2 5.5 5.5 0 0 0-1.2 1.2ZM346.7 248.4a14.2 14.2 0 0 0 1-3.4 15.7 15.7 0 0 0-.2-3.5 3.9 3.9 0 0 1 .4 1 6.9 6.9 0 0 1 .2 2.6 7.3 7.3 0 0 1-.8 2.5c-.3.6-.6.9-.6.8ZM319.8 282.6a87.5 87.5 0 0 0 8.3 30.7h20.3a87.5 87.5 0 0 0 7.8-30.7Z"></path><path class="cls-2" d="M352.9 299c0 .1-6.7.2-14.9.2s-14.9-.1-14.9-.2 6.7-.2 14.9-.2 14.9.1 14.9.2ZM352.4 302.6c0 .1-6.3.2-14 .2s-14-.1-14-.2 6.3-.2 14-.2 14 .1 14 .2ZM328.4 289.3a55.3 55.3 0 0 1 0 9.4 55.3 55.3 0 0 1 0-9.4Z"></path><path class="cls-2" d="M339.3 289.3a31 31 0 0 1 .2 4.8 29.9 29.9 0 0 1-.2 4.8 31 31 0 0 1-.2-4.8 29.9 29.9 0 0 1 .2-4.8ZM349.5 289.2a60.1 60.1 0 0 1 0 9.8 60.1 60.1 0 0 1 0-9.8Z"></path><path class="cls-2" d="M355.5 289.3c0 .1-7.8.2-17.5.2s-17.5-.1-17.5-.2 7.8-.2 17.5-.2 17.5.1 17.5.2ZM16.3 76h70v63.4h-70z"></path><path class="cls-1" d="M86.3 139.4v-17.5l-.1-46 .2.2h-70l.2-.2v63.4l-.2-.2h69.7a.2.2 0 0 0 .2.2H16.2V75.7h70.4v.2l-.1 46.1v16.2a5.6 5.6 0 0 0-.2 1.2Z"></path><path class="cls-1" d="M24.5 98.5h3.3v3.3h-3.3zM32.5 98.5h3.3v3.3h-3.3zM40.7 98.4H44v3.3h-3.3zM48.5 98.5h3.3v3.3h-3.3zM56.5 98.5h3.3v3.3h-3.3zM64.6 98.5h3.3v3.3h-3.3z"></path><path class="cls-3" d="M72.6 98.5h3.3v3.3h-3.3zM24.5 105.4h3.3v3.3h-3.3z"></path><path class="cls-1" d="M32.5 105.4h3.3v3.3h-3.3z"></path><path class="cls-3" d="M40.5 105.4h3.3v3.3h-3.3z"></path><path class="cls-1" d="M48.5 105.4h3.3v3.3h-3.3zM56.5 105.4h3.3v3.3h-3.3zM64.7 105.3H68v3.3h-3.3zM72.6 105.4h3.3v3.3h-3.3zM24.5 112.4h3.3v3.3h-3.3zM32.7 112.2H36v3.3h-3.3zM40.5 112.4h3.3v3.3h-3.3z"></path><path class="cls-3" d="M48.5 112.4h3.3v3.3h-3.3z"></path><path class="cls-1" d="M56.5 112.4h3.3v3.3h-3.3zM64.6 112.4h3.3v3.3h-3.3zM72.6 112.4h3.3v3.3h-3.3zM24.5 119.3h3.3v3.3h-3.3zM32.5 119.3h3.3v3.3h-3.3zM40.5 119.3h3.3v3.3h-3.3zM48.7 119.1H52v3.3h-3.3zM56.5 119.3h3.3v3.3h-3.3z"></path><path class="cls-3" d="M64.6 119.3h3.3v3.3h-3.3z"></path><path class="cls-1" d="M72.6 119.3h3.3v3.3h-3.3zM24.5 126.2h3.3v3.3h-3.3z"></path><path class="cls-3" d="M32.5 126.2h3.3v3.3h-3.3z"></path><path class="cls-1" d="M40.5 126.2h3.3v3.3h-3.3zM48.5 126.2h3.3v3.3h-3.3zM56.5 126.2h3.3v3.3h-3.3zM64.7 126.1H68v3.3h-3.3zM72.6 126.2h3.3v3.3h-3.3zM75.1 93.4H24.3a.9.9 0 0 1-.9-.9.9.9 0 0 1 .9-.9h50.8a.9.9 0 0 1 .9.9.9.9 0 0 1-.9.9ZM27.3 86.9h-3a.9.9 0 0 1-.9-.9.9.9 0 0 1 .9-.9h3a.9.9 0 0 1 .9.9.9.9 0 0 1-.9.9ZM41.2 86.9h-9.9a.9.9 0 0 1-.9-.9.9.9 0 0 1 .9-.9h9.9a.9.9 0 0 1 .9.9.9.9 0 0 1-.9.9Z"></path><path class="cls-4" d="M125.7 193.5a6.9 6.9 0 0 0-3.3-2.2l-3.8-1.1c-.6-.2-1.3-.5-1.4-1.2a1.3 1.3 0 0 1 .5-1.1 10.5 10.5 0 0 1 1.1-.7 4.6 4.6 0 0 0 1.7-6 4.7 4.7 0 0 0-5.8-2.1 1 1 0 0 0-.5.4.7.7 0 0 0 .3.8l.8.5c1.1.7 1 2.4.2 3.5a6 6 0 0 1-3.3 1.8 11.3 11.3 0 0 0-3.6 1.4c-1 .8-1.7 2.3-1.1 3.4a3.3 3.3 0 0 0 2.1 1.5 9.9 9.9 0 0 1 2.4.9 2.5 2.5 0 0 1 1.2 2.1c-.2 1.1-1.5 1.6-2.6 1.9l-3.7 1.3a5.2 5.2 0 0 0-2.2 1.4 2 2 0 0 0 0 2.4l14.9.4c-.6-.1-1.3-2.2-1-2.7a2.6 2.6 0 0 1 1.5-.9c1.1-.3 2.2-.3 3.2-.6a4.2 4.2 0 0 0 2.7-1.8c.8-.7.5-2.3-.3-3.3Zm-13.8-3.1a1 1 0 0 1-.8.6 1.7 1.7 0 0 1-1-.1 1.5 1.5 0 0 1-.9-1 1.8 1.8 0 0 1 .3-1.2l.2-.2a1.1 1.1 0 0 1 .7-.3 1.4 1.4 0 0 1 1 .5 3.1 3.1 0 0 1 .5 1 .9.9 0 0 1 0 .7ZM113.7 179.8a.6.6 0 1 1-.6-.6.6.6 0 0 1 .6.6Z"></path><path class="cls-1" d="M102.6 203h18.1l-1.4 9.9s-1.2 4.9-3.9 4.9h-7.8a8.3 8.3 0 0 1-3.8-5.4Z"></path><path class="cls-1" d="M119.3 208.1h1.9l.5.3h.1l.2.2h.1l.2.3v.4l.1.3c0 .1.1.3 0 .2V210.7a.4.4 0 0 1-.1.3c0 .1-.1.3 0 .1l-.3.5h-.1l-.3.3h-.5a.1.1 0 0 0-.1.1c.1-.1.1 0 0 0l-.6.2h-1.3a1.1 1.1 0 0 0-1.5.4 1 1 0 0 0 .4 1.5 4.6 4.6 0 0 0 6.1-1.7 4.5 4.5 0 0 0 .5-3.4 4.6 4.6 0 0 0-2-2.8 4.9 4.9 0 0 0-3.7-.6 1.2 1.2 0 0 0-.8 1.3c-.1.4.5.8 1 .6Z"></path><path class="cls-4" d="M119 203.9Z"></path><path class="cls-1" d="M234.7.7v67.7h-87.3l-3.2-67.2 90.5-.5z"></path><path class="cls-4" d="M144.2 1.1h87.4v67.3h-87.4z"></path><path class="cls-1" d="M231.9 68.7h-88V.8h88Zm-87.4-.6h86.7V1.5h-86.7v66.6Z"></path><path class="cls-1" d="m144.2 1 1.5.9 3.4 2.4 3.3 2.6 1.3 1.2a7.5 7.5 0 0 1-1.4-1l-3.4-2.5-3.3-2.5ZM231.6 1.1a38.2 38.2 0 0 1-4.6 3.6 53.1 53.1 0 0 1-4.8 3.3 38.2 38.2 0 0 1 4.6-3.6l4.8-3.3ZM144.2 68.4a54.7 54.7 0 0 1 4.6-4.4 54.9 54.9 0 0 1 4.8-4.1 54.7 54.7 0 0 1-4.6 4.4 54.9 54.9 0 0 1-4.8 4.1ZM221.8 59.5a60.3 60.3 0 0 1 5 4.3 44.5 44.5 0 0 1 4.8 4.6 60.3 60.3 0 0 1-5-4.3 44.5 44.5 0 0 1-4.8-4.6Z"></path><path class="cls-5" d="M153.7 8h68.5v51.5h-68.5z"></path><path class="cls-1" d="M222.1 8h-68.4l.2-.2v51.6l-.2-.2h68.4l.1-37.4v-13a3.7 3.7 0 0 1-.1-.8v14l.1 37.5h-68.8V7.7h68.3Z"></path><path style="fill:none" d="m231.6 68.4-9.8-8.9"></path><path class="cls-1" d="M203.7 17.5c0 .1-6.8.2-15.1.2s-15.1-.1-15.1-.2 6.8-.2 15.1-.2 15.1.1 15.1.2ZM210.6 34.6c0 .1-10.1.2-22.7.2s-22.7-.1-22.7-.2 10.1-.2 22.7-.2 22.7.1 22.7.2ZM210.6 38.8c0 .1-10.1.2-22.7.2s-22.7-.1-22.7-.2 10.1-.2 22.7-.2 22.7.1 22.7.2ZM163 26a2.7 2.7 0 0 1 2.9-2.7 3.1 3.1 0 0 1 2.3 1l-.9.9a1.5 1.5 0 1 0 0 1.8l.9.9a2.9 2.9 0 0 1-2.3 1A3 3 0 0 1 163 26ZM173 27.5v1.1h-4.2v-5.2h4.1v1.1h-2.6v.9h2.3v1.1h-2.3v1ZM176.1 27.2h-.8v1.4h-1.5v-5.2h2.4c1.4 0 2.3.7 2.3 1.9a1.9 1.9 0 0 1-1 1.7l1.1 1.6H177Zm0-2.6h-.8v1.5h.8c.6 0 .9-.3.9-.8s-.3-.7-.9-.7ZM180.4 24.6h-1.6v-1.2h4.7v1.2h-1.6v4.1h-1.5ZM184 23.4h1.5v5.2H184ZM188 24.5v1.2h2.3v1.1H188v1.8h-1.5v-5.2h4.1v1.1ZM191.4 23.4h1.5v5.2h-1.5ZM193.6 26a2.7 2.7 0 0 1 2.9-2.7 3.1 3.1 0 0 1 2.3 1l-.9.9a1.5 1.5 0 1 0 0 1.8l.9.9a2.9 2.9 0 0 1-2.3 1 3 3 0 0 1-2.9-2.9ZM202.8 27.6h-2.2l-.4 1h-1.5l2.3-5.2h1.5l2.3 5.2h-1.5Zm-.4-1.1-.7-1.7-.7 1.7ZM206.1 24.6h-1.6v-1.2h4.7v1.2h-1.6v4.1h-1.5ZM213.9 27.5v1.1h-4.2v-5.2h4.1v1.1h-2.6v.9h2.3v1.1h-2.3v1ZM193.8 49.2a5.3 5.3 0 1 1-5.3-5.3 5.3 5.3 0 0 1 5.3 5.3Z"></path><path class="cls-1" d="M188.6 54.5a5.3 5.3 0 1 1 5.3-5.3 5.3 5.3 0 0 1-5.3 5.3Zm0-10.5a5.3 5.3 0 1 0 5.3 5.3 5.3 5.3 0 0 0-5.3-5.3ZM177.8 49.2a53 53 0 0 1-6.4.2 54.4 54.4 0 0 1-6.4-.2 53 53 0 0 1 6.4-.2l6.4.2ZM212.7 49.2a66.7 66.7 0 0 1-7.1.2 66.7 66.7 0 0 1-7.1-.2 66.7 66.7 0 0 1 7.1-.2l7.1.2Z"></path><path class="cls-3" d="M174.6 48.2a1.6 1.6 0 0 0-.1-.4 7.2 7.2 0 0 1 .1-1.3 4.8 4.8 0 0 1 .8-1.9 1 1 0 0 1 .5-.4.9.9 0 0 1 .7.1 1.2 1.2 0 0 1 .4 1.4 5 5 0 0 1-.8 1.4 4.6 4.6 0 0 1-1.2 1.2 3.4 3.4 0 0 1-1.7.8 2.7 2.7 0 0 1-1.9-.4 2 2 0 0 1-.8-1.9 5.6 5.6 0 0 1 .6-2.1 3.1 3.1 0 0 1 .7-.9 1.6 1.6 0 0 1 1.2-.3 1.4 1.4 0 0 1 .9.9 2.5 2.5 0 0 1-.1 1.2 7.5 7.5 0 0 1-1 2 3.9 3.9 0 0 1-1.7 1.4 3.9 3.9 0 0 1-2.1.3 2.6 2.6 0 0 1-1.7-1.2 2.7 2.7 0 0 1-.4-1.9 4.1 4.1 0 0 1 .5-1.8 1.9 1.9 0 0 1 1.2-1.3.7.7 0 0 1 .8.4 1.2 1.2 0 0 1 .2.8 5.3 5.3 0 0 1-.6 2.6 5.3 5.3 0 0 1-1.3 1.6 2.8 2.8 0 0 1-1.1.7l-.4.2a4.6 4.6 0 0 0 1.4-.9 7.4 7.4 0 0 0 1.2-1.6 4.9 4.9 0 0 0 .6-2.5 1.9 1.9 0 0 0-.2-.7.4.4 0 0 0-.5-.2c-.2 0-.4.2-.6.4a2.5 2.5 0 0 0-.4.7 3.4 3.4 0 0 0 0 3.4 2.1 2.1 0 0 0 1.5 1 3.2 3.2 0 0 0 1.9-.3 5.4 5.4 0 0 0 2.5-3.2 3.4 3.4 0 0 0 .1-1 .9.9 0 0 0-.6-.6 1 1 0 0 0-.9.2 2.4 2.4 0 0 0-.6.8 4.5 4.5 0 0 0-.5 1.9 1.9 1.9 0 0 0 .7 1.6 2.5 2.5 0 0 0 1.7.4 3.5 3.5 0 0 0 1.5-.7 6.3 6.3 0 0 0 1.1-1.2 3.3 3.3 0 0 0 .7-1.3 1.1 1.1 0 0 0-.3-1.1c-.3-.3-.7-.1-1 .2a3.6 3.6 0 0 0-.8 1.8 4.4 4.4 0 0 0-.2 1.7ZM211 47.4h-.1l-.4.2-1.7.6-2.8.5h-3.8a1.8 1.8 0 0 0-.9.4.7.7 0 0 0-.1.9 4.7 4.7 0 0 0 .6.9l.8.9.9.9a2.3 2.3 0 0 0 1 .7.8.8 0 0 0 1-.4 1.7 1.7 0 0 0 .3-1.2 28.7 28.7 0 0 1 1.3-12.1l.2-.5.2.4a10.8 10.8 0 0 1 .7 3.1 11 11 0 0 1-.7 4.4 11.4 11.4 0 0 1-1 1.9 3 3 0 0 1-1.7 1.4.9.9 0 0 1-1.1-.4 2 2 0 0 1-.3-1.1 13.4 13.4 0 0 1 .1-2 13.7 13.7 0 0 1 1.1-3.6v-.2l.2.2a2.5 2.5 0 0 1-.7 3.6 2.5 2.5 0 0 1-3.2-.7 2.5 2.5 0 0 1 .2-3l.6-.4a.6.6 0 0 1 .7.2 1 1 0 0 1 .2.7l-.1.6a6.7 6.7 0 0 1-2 3l-.7.6-.3.2.2-.2.7-.6a7 7 0 0 0 1.8-3 1.4 1.4 0 0 0 0-1.1c-.2-.3-.7-.1-1 .2a2.4 2.4 0 0 0-.2 2.7 2.2 2.2 0 0 0 2.9.6 2.2 2.2 0 0 0 .6-3.1h.3a10.8 10.8 0 0 0-1 3.5 12.1 12.1 0 0 0-.1 1.9 2.9 2.9 0 0 0 .2.9.6.6 0 0 0 .7.2l.8-.5.6-.8a16.2 16.2 0 0 0 1-1.8 10 10 0 0 0 .7-4.2 9.4 9.4 0 0 0-.7-3h.3a27.9 27.9 0 0 0-1.3 12 2.3 2.3 0 0 1-.4 1.4l-.6.5a1.1 1.1 0 0 1-.8 0 3.1 3.1 0 0 1-1.1-.8l-.9-.9-.8-.9a8.6 8.6 0 0 1-.7-1 1.1 1.1 0 0 1 .3-1.1 1.4 1.4 0 0 1 1-.5h3.8l2.8-.4 1.7-.5Z"></path><path class="cls-7" d="M378.4 313.4c0 .1-84.7.2-189.2.2S0 313.5 0 313.4s84.7-.2 189.2-.2 189.2 0 189.2.2Z"></path><path class="cls-8" d="M56.2 159.3h33.5v4.2H56.2z"></path><path class="cls-8" d="m59.3 162.6.2.9 4.9 20.1h19.2l4.5-21.2-28.8.2z"></path><path class="cls-9" d="M59.2 163.5Z"></path><path class="cls-7" d="M50.1 152.1c-2 2.4-4.1 4.9-7 6a2 2 0 0 1-2.1-.1c-.6-.6-.3-1.7 0-2.5 1.6-3.3 4.2-6.4 7.7-7.6a2.4 2.4 0 0 1 2.2.1c.7.5.6 1.6.2 2.4l-1.4 2.2"></path><path d="M46.4 149.1s.8 1.9 5 .2c0 0 .3-1.2-.5-1.3a5.2 5.2 0 0 0-4.5 1.1Z" class="cls-10"></path><path class="cls-9" d="M67.7 162.6c-.1 0-.4-1.2-1.4-3a14.8 14.8 0 0 0-13.1-7.6c-2 0-3.3.4-3.3.3h.2l.6-.2 2.4-.3a14.8 14.8 0 0 1 7.8 2 14.6 14.6 0 0 1 5.6 5.8 17.7 17.7 0 0 1 1 2.2l.2.6c.1.1.1.2 0 .2Z"></path><path class="cls-7" d="m40.7 155.8.9-.8a20.8 20.8 0 0 1 2.4-1.5 14.9 14.9 0 0 1 2.6-1l1.1-.2c0 .1-1.7.5-3.6 1.4s-3.3 2.2-3.4 2.1ZM70.4 127.5a3.9 3.9 0 0 0 1.8-4.3 6.4 6.4 0 0 0-1.9-2.7 11.5 11.5 0 0 0-10.8-2.2 5.5 5.5 0 0 0-2.9 1.8 5.3 5.3 0 0 0-.3 5.9 8.4 8.4 0 0 0 5 3.6 10.4 10.4 0 0 0 9.1-2.1"></path><path d="M62.4 129.8a6.3 6.3 0 0 1 4.7-2.7c3.5-.5 3.9 0 3.9 0a12.3 12.3 0 0 1-3.7 2.3 21.2 21.2 0 0 1-4.9.4Z" class="cls-10"></path><path class="cls-7" d="M101.4 168.2a5.6 5.6 0 0 0-3.2-4l-1-.4a8.9 8.9 0 0 0-10 11.4A6.8 6.8 0 0 0 92 180a6.3 6.3 0 0 0 5.7-1.6 11.4 11.4 0 0 0 3.3-5.2 9.4 9.4 0 0 0 .4-5ZM101.6 130.1a12.8 12.8 0 0 0-9.3 2.5 7.5 7.5 0 0 0-2.2 2.5 5.4 5.4 0 0 0-.6 3.3 4.7 4.7 0 0 0 1.8 2.9 10 10 0 0 0 3 1.7 21.8 21.8 0 0 0 10.4 1.4 11.8 11.8 0 0 0 3.7-.9 5.2 5.2 0 0 0 2.5-7.5 9.3 9.3 0 0 0-3.4-3.7c-1.4-.9-1.9-1.7-5.9-2.2"></path><path class="cls-9" d="M71.6 160.5c-.1 0-.3-1.2-1.2-3l-.8-1.4-1-1.6a27.3 27.3 0 0 0-2.8-3.3 54.8 54.8 0 0 0-6-5.1l-1.9-1.5-.7-.6.7.5 1.9 1.4a54.6 54.6 0 0 1 6.1 5.1 20.5 20.5 0 0 1 2.8 3.3l1 1.6.8 1.5a11.2 11.2 0 0 1 .5 1.3l.3 1ZM91.5 165.8l-.6-.4-1.6-1.1a32 32 0 0 0-5.9-3 36.3 36.3 0 0 0-6.4-1.7l-2-.3 2 .2a28.3 28.3 0 0 1 6.4 1.6 26.6 26.6 0 0 1 5.9 3.1l1.6 1.2.6.4Z"></path><path class="cls-9" d="M97.2 155.3h-.9l-2.3.3c-2 .2-4.7.6-7.7 1.2s-5.6 1.3-7.6 1.8l-2.3.6-.8.2.8-.3 2.2-.7a75.9 75.9 0 0 1 7.6-1.9 56.5 56.5 0 0 1 7.7-1.1l2.4-.2q.9-.1.9.1ZM91.6 141.6l-.6.7-1.7 1.9-5.5 6.3a157 157 0 0 1-5.6 6.3l-1.8 1.8-.7.6.6-.7 1.7-1.9 5.5-6.3 5.6-6.3 1.8-1.8Z"></path><path class="cls-11" d="M69.6 127.7Z"></path><path class="cls-7" d="M81.6 133.7a7.4 7.4 0 0 0-4.8-5.1 18.8 18.8 0 0 0-7.1-.9 12.6 12.6 0 0 0-7.2 3.2 7.4 7.4 0 0 0-2.7 5.1c-.1 2.1.9 4 2 5.8a10.7 10.7 0 0 0 3.4 3.6 8.3 8.3 0 0 0 6.9.4 16.3 16.3 0 0 0 5.8-4 14 14 0 0 0 2.8-3.6 6.7 6.7 0 0 0 .9-4.5Z"></path><path class="cls-9" d="m73.1 159.9-.5-7.3-.2-7.3.5 7.3.2 7.3ZM88.8 127.1a.8.8 0 0 1-.1.3l-.5.9-1.7 3.4-5.3 11.5a424 424 0 0 1-5.3 11.5l-1.7 3.5-.5.9-.2.3v-.3a5.1 5.1 0 0 0 .4-1l1.6-3.5 5.3-11.6c2-4.5 3.9-8.6 5.4-11.5l1.8-3.4.5-.9.3-.1Z"></path><path class="cls-7" d="M48.7 148.8a10.2 10.2 0 0 0 4.9-1.3c2.5-1.6 5-2.8 6.4-5.4a2.4 2.4 0 0 0 .3-2c-.4-.8-1.5-.9-2.5-.9-3.7.2-7.6 1.5-10 4.4a4.3 4.3 0 0 0-1.3 3.1 2.1 2.1 0 0 0 2.2 2.1"></path><path class="cls-9" d="M57.3 142.6h-1.6a21.8 21.8 0 0 0-3.9.5 25.5 25.5 0 0 0-3.7 1.3c-.9.4-1.4.8-1.5.7l1.4-.9a13 13 0 0 1 3.7-1.4 11.4 11.4 0 0 1 3.9-.4 3.7 3.7 0 0 1 1.7.2Z"></path><path d="M60.4 167.1a6.1 6.1 0 0 0 2-3.7 5.9 5.9 0 0 0-.8-4.1h-3.2Z" class="cls-10"></path><path class="cls-7" d="M60.8 161.2a4.2 4.2 0 0 0-2.2-3.1l-1.7-.9a8.6 8.6 0 0 0-6.3 0 10.4 10.4 0 0 0-5 3.5 6.5 6.5 0 0 0-1.1 5.8 6.2 6.2 0 0 0 4.3 4 8.9 8.9 0 0 0 6-.5 10 10 0 0 0 5.3-5 6.2 6.2 0 0 0 .7-3.8Z"></path><path class="cls-9" d="m53.6 161.3-.9 1.3a27 27 0 0 0-1.9 3.2 22.3 22.3 0 0 0-1.5 3.4c-.3.9-.5 1.5-.6 1.4a11 11 0 0 1 .4-1.5 22.8 22.8 0 0 1 1.5-3.5 26.1 26.1 0 0 1 2-3.2Z"></path><path d="M76.4 160.4c-2.9-1.2-6.3.3-8.1 2.8s-2.1 5.8-1.7 8.9a12.3 12.3 0 0 0 1.6 4.9 7.2 7.2 0 0 0 3.9 3.2 6.9 6.9 0 0 0 5.4-.9 12.4 12.4 0 0 0 3.8-4.1 11.9 11.9 0 0 0 1.6-8.6c-.8-2.9-3.5-5.9-6.5-6.2" class="cls-10"></path><path class="cls-7" d="M75 158.5c-2.9-1.2-6.3.3-8.1 2.8s-2.1 5.8-1.7 8.9a12.3 12.3 0 0 0 1.6 4.9 7.2 7.2 0 0 0 3.9 3.2 6.9 6.9 0 0 0 5.4-.9 12.4 12.4 0 0 0 3.8-4.1 11.9 11.9 0 0 0 1.6-8.6c-.8-2.8-3.5-5.9-6.5-6.2"></path><path class="cls-9" d="M73.3 178.4a1.2 1.2 0 0 1-.1-.5 10.4 10.4 0 0 0-.2-1.5 64.6 64.6 0 0 1 0-10 8.6 8.6 0 0 0 .1-1.5l.1-.5v2.1l-.1 4.9.1 4.9a8.4 8.4 0 0 1 .1 2.1ZM96.8 179.1a10 10 0 0 0 .4-1.4 7.2 7.2 0 0 0-.2-3.5 21 21 0 0 0-1.5-3.3l-.8-1.3a7.3 7.3 0 0 1 .9 1.2 16.6 16.6 0 0 1 1.7 3.3 8 8 0 0 1 .2 3.7 6.6 6.6 0 0 1-.4 1.1Z"></path><path d="M95.2 163.8s1.1 5.6 6.2 4.4c0 0 .2-5-6.2-4.4Z" class="cls-10"></path><path class="cls-7" d="M100.2 150.8a7.4 7.4 0 0 0-2.5-.5 2.8 2.8 0 0 0-2.3 1 3.4 3.4 0 0 0-.5 1.9 23.6 23.6 0 0 0 1 8.8 9 9 0 0 0 1.3 2.8 3.9 3.9 0 0 0 2.6 1.5c1.6.1 2.9-1.1 3.8-2.4a9.4 9.4 0 0 0 1.4-7.1 8.7 8.7 0 0 0-4.3-5.8"></path><path class="cls-9" d="M110.5 135.6h-1.6l-3.9.4-3.9.6-1.6.2 1.6-.5 3.9-.7 4-.3ZM67.5 146.1l-.2-1.8a22.5 22.5 0 0 1 .2-4.3 15.5 15.5 0 0 1 .6-2.3 15.9 15.9 0 0 1 .8-1.8 7.2 7.2 0 0 1 .7-1.1l.3-.4-.9 1.5a15.9 15.9 0 0 0-.8 1.8l-.6 2.3a23.3 23.3 0 0 0-.3 4.3 11.1 11.1 0 0 1 .2 1.8Z"></path><path class="cls-7" d="M65.3 123.3c-.1.1-1.4-1.3-3.3-2.5a32.6 32.6 0 0 0-3.7-2l1.2.4 2.7 1.4a12.6 12.6 0 0 1 2.4 1.9c.5.4.8.8.7.8ZM103.7 123.5a3.5 3.5 0 0 0-1.4-.6 24.9 24.9 0 0 0-15.5.9 4.7 4.7 0 0 0-1.2.7 1.3 1.3 0 0 0-.3 1.3h.1c.6.9 2.5 1.5 4 1.6a29.6 29.6 0 0 0 13.5-1.5 2 2 0 0 0 1.3-1.1 1.3 1.3 0 0 0-.5-1.3Z"></path><path class="cls-12" d="m213.9 269.9 5.3 67.1h-5.3l-7.9-67.1h7.9zM165.7 269.7l-5.4 67.1h5.4l7.8-67.1h-7.8z"></path><path class="cls-13" d="M151.6 303.3h75.2v5.2h-75.2z"></path><path class="cls-13" d="m229.7 269.9 5.4 67.1h-5.4l-7.8-67.1h7.8z"></path><path class="cls-11" d="M240 168.6a45.7 45.7 0 0 0-25.1-14.4 119.3 119.3 0 0 0-26.5-3.8h-2.2a119.3 119.3 0 0 0-26.5 3.8 44.6 44.6 0 0 0-25.1 14.4c-8.2 10.5-10.6 42.5-7 55.9s6.5 28.1 13.9 39.4l46.9-7.1 49.2 7.1c2.1-2.9 7.4-28.8 11-42.2s-.4-42.5-8.6-53.1Z"></path><path class="cls-11" d="M231.5 269.9H147a7.8 7.8 0 0 1-7.8-7.8 7.8 7.8 0 0 1 7.8-7.8h84.5a7.8 7.8 0 0 1 7.8 7.8 7.8 7.8 0 0 1-7.8 7.8Z"></path><path class="cls-9" d="M232.7 254.4c0 .1-19.3.2-43.1.2s-43.1-.1-43.1-.2 19.3-.2 43.1-.2 43.1.1 43.1.2Z"></path><path class="cls-13" d="m150.5 269.7-5.4 67.1h5.4l7.8-67.1h-7.8z"></path><path class="cls-9" d="m151.7 168.4-1.3 1.5a45.1 45.1 0 0 0-3.3 4.3 50.1 50.1 0 0 0-7.3 18.1 61.3 61.3 0 0 0-.4 20.8 50.9 50.9 0 0 0 1.3 6.1l.6 2.2-.2-.5-.5-1.6a47.7 47.7 0 0 1-1.4-6.1 60.2 60.2 0 0 1 .3-21.1 49.6 49.6 0 0 1 7.5-18.3 38.1 38.1 0 0 1 3.5-4.2l1-1ZM153.5 255.5l-.2-.5-.4-1.4a347.4 347.4 0 0 0-6.6-22.6 22 22 0 0 0-1.9-4.7 12 12 0 0 0-2.8-3.7 7.3 7.3 0 0 0-3.8-1.7 9 9 0 0 0-3.7.4 17.3 17.3 0 0 0-4.9 2.3l-1.3.8c-.3.2-.4.3-.5.2l.4-.3 1.2-.8a20.2 20.2 0 0 1 4.9-2.4 9.3 9.3 0 0 1 3.8-.4 7.9 7.9 0 0 1 4 1.7 12 12 0 0 1 2.9 3.8 25.3 25.3 0 0 1 1.9 4.8c2.2 6.7 3.8 12.9 5 17.3l1.3 5.3a10.6 10.6 0 0 0 .3 1.4ZM221.8 168l.4.3 1.1.9a29.6 29.6 0 0 1 3.6 3.9 45.8 45.8 0 0 1 8.3 17.6 57.8 57.8 0 0 1 1.2 21 56.9 56.9 0 0 1-1.1 6.2l-.4 1.6a3.2 3.2 0 0 1-.2.6s.2-.8.5-2.3.7-3.6 1-6.2a61.8 61.8 0 0 0-1.3-20.8 48.5 48.5 0 0 0-8.1-17.5 46.6 46.6 0 0 0-3.5-4.1ZM224.4 255.2a1.8 1.8 0 0 1 .1-.5l.2-1.5 1-5.4c.9-4.5 2.1-10.8 3.9-17.6a25.6 25.6 0 0 1 1.6-4.9 12.3 12.3 0 0 1 2.7-4 7.7 7.7 0 0 1 3.9-2 9.4 9.4 0 0 1 3.8.2 23.8 23.8 0 0 1 5.1 2.1l1.3.8.4.3-.5-.2-1.3-.7a23.3 23.3 0 0 0-5-2 9.1 9.1 0 0 0-3.7-.1 8.2 8.2 0 0 0-3.7 1.9 12.1 12.1 0 0 0-2.6 3.9 33.8 33.8 0 0 0-1.6 4.8 291.4 291.4 0 0 0-5.1 22.8 10.6 10.6 0 0 1-.3 1.4l-.2.7Z"></path><path class="cls-1" d="M312.6 205.5h-78.9a3.8 3.8 0 0 1-3.8-3.8v-57.4a3.8 3.8 0 0 1 3.8-3.8h78.9a3.8 3.8 0 0 1 3.8 3.8v57.4a3.9 3.9 0 0 1-3.8 3.8Z"></path><path class="cls-9" d="M312.6 205.5h.8a3.8 3.8 0 0 0 1.9-1.1 4.7 4.7 0 0 0 .8-1.4 6.2 6.2 0 0 0 .2-2v-5l-.1-31.7v-20.5a2.9 2.9 0 0 0-.5-1.3 4.1 4.1 0 0 0-2.2-1.7h-79.8a3.5 3.5 0 0 0-3.5 3.4V201a8.1 8.1 0 0 0 .1 1.6 3.6 3.6 0 0 0 3.2 2.7h78.2l.9.2h-79a4.2 4.2 0 0 1-1.6-.4 3.8 3.8 0 0 1-2-2.6 9.7 9.7 0 0 1-.1-1.7v-56.7a3.3 3.3 0 0 1 .6-1.9 3.9 3.9 0 0 1 3.4-1.9h79.8a4 4 0 0 1 2.4 1.8 3.4 3.4 0 0 1 .5 1.4 7.5 7.5 0 0 1 0 1.5v19l-.1 31.7v5a6.5 6.5 0 0 1-.2 2 2.8 2.8 0 0 1-.9 1.4 4 4 0 0 1-2 1.1Z"></path><path class="cls-1" d="m266.8 185 4.2 30.2s-20-1.3-21 2.3h44l-8.3-33.1Z"></path><path class="cls-9" d="M250 217.5a.4.4 0 0 1 .1-.3 1.7 1.7 0 0 1 1-.8 16.3 16.3 0 0 1 4.5-1.1c3.9-.7 9.3-.5 15.4-.3l-.2.3-.4-2.9-2.3-17.4-.6-5.2-.2-1.4v-.5a1.2 1.2 0 0 1 .1.5l.2 1.4.8 5.2 2.4 17.2.4 2.9v.3h-.3c-6.1-.3-11.5-.5-15.4.1a16.6 16.6 0 0 0-4.4.9 2.9 2.9 0 0 0-1 .7 1 1 0 0 0-.1.4ZM269.6 186.3h17v.2l1.8 7.4 4 16.8 1.2 5.1.3 1.4a1.8 1.8 0 0 1 .1.5l-.2-.5-.4-1.4-1.3-5.1-4.1-16.8-1.8-7.4.2.2h-16.8Z"></path><path d="M229.9 145.2v55.6a4.7 4.7 0 0 0 4.7 4.7v-64.9a4.5 4.5 0 0 0-4.7 4.6Z" class="cls-14"></path><path class="cls-11" d="M276.9 26.1H346v89.2h-69.1z"></path><path class="cls-9" d="m346 26.1-.2.2-.6.7-2.3 2.6h-62.8l-2.3-2.6-.6-.7-.2-.2.2.2.6.6 2.4 2.5h62.6l2.4-2.5.6-.6ZM276.9 115.4l.2-.2.6-.7 2.3-2.6h62.8l2.3 2.6.6.7.2.2-.2-.2-.6-.6-2.4-2.5h-62.6l-2.4 2.5-.6.6Z"></path><path class="cls-5" d="M280.1 29.5h62.7v82.4h-62.7z"></path><path class="cls-8" d="M289.9 87.9c1.9-1.8 4.6-2.3 7.2-2.2s5.1.6 7.7.6 8.2-1.6 12.3-.9c1.3.2 2.6.7 3.9.4s2.1-1 3.2-1.3c2.9-.9 6.1 1.4 8.8.2v18.4h-43.1Z"></path><path class="cls-9" d="M290.8 88.6c-.1 0-.2-10.9-.2-24.3s.1-24.3.2-24.3.2 10.9.2 24.3-.1 24.3-.2 24.3ZM292.7 88.6c-.1 0-.2-10.9-.2-24.3s.1-24.3.2-24.3.2 10.9.2 24.3-.1 24.3-.2 24.3ZM294.7 88.6c-.1 0-.2-10.9-.2-24.3s.1-24.3.2-24.3.2 10.9.2 24.3-.1 24.3-.2 24.3ZM296.7 88.6c-.1 0-.2-10.9-.2-24.3s.1-24.3.2-24.3.2 10.9.2 24.3-.1 24.3-.2 24.3ZM298.6 88.6c-.1 0-.2-10.9-.2-24.3s.1-24.3.2-24.3.2 10.9.2 24.3-.1 24.3-.2 24.3ZM300.6 88.6c-.1 0-.2-10.9-.2-24.3s.1-24.3.2-24.3.2 10.9.2 24.3-.1 24.3-.2 24.3ZM302.5 88.6c-.1 0-.2-10.9-.2-24.3s.1-24.3.2-24.3.2 10.9.2 24.3 0 24.3-.2 24.3ZM304.5 88.6c-.1 0-.2-10.9-.2-24.3s.1-24.3.2-24.3.2 10.9.2 24.3-.1 24.3-.2 24.3ZM306.5 88.6c-.1 0-.2-10.9-.2-24.3s.1-24.3.2-24.3.2 10.9.2 24.3-.1 24.3-.2 24.3ZM308.4 88.6c-.1 0-.2-10.9-.2-24.3s.1-24.3.2-24.3.2 10.9.2 24.3-.1 24.3-.2 24.3ZM310.4 88.6c-.1 0-.2-10.9-.2-24.3s.1-24.3.2-24.3.2 10.9.2 24.3-.1 24.3-.2 24.3ZM312.4 88.6c-.1 0-.2-10.9-.2-24.3s.1-24.3.2-24.3.2 10.9.2 24.3-.1 24.3-.2 24.3ZM314.3 88.6c-.1 0-.2-10.9-.2-24.3s.1-24.3.2-24.3.2 10.9.2 24.3-.1 24.3-.2 24.3ZM316.3 88.6c-.1 0-.2-10.9-.2-24.3s.1-24.3.2-24.3.2 10.9.2 24.3-.1 24.3-.2 24.3ZM318.2 88.6c-.1 0-.2-10.9-.2-24.3s.1-24.3.2-24.3.2 10.9.2 24.3-.1 24.3-.2 24.3ZM320.2 88.6c-.1 0-.2-10.9-.2-24.3s.1-24.3.2-24.3.2 10.9.2 24.3-.1 24.3-.2 24.3ZM322.2 88.6c-.1 0-.2-10.9-.2-24.3s.1-24.3.2-24.3.2 10.9.2 24.3-.1 24.3-.2 24.3ZM324.1 88.6c-.1 0-.2-10.9-.2-24.3s.1-24.3.2-24.3.2 10.9.2 24.3-.1 24.3-.2 24.3ZM326.1 88.6c-.1 0-.2-10.9-.2-24.3s.1-24.3.2-24.3.2 10.9.2 24.3-.1 24.3-.2 24.3ZM328 88.6c-.1 0-.2-10.9-.2-24.3s.1-24.3.2-24.3.2 10.9.2 24.3 0 24.3-.2 24.3ZM330 88.6c-.1 0-.2-10.9-.2-24.3s.1-24.3.2-24.3.2 10.9.2 24.3-.1 24.3-.2 24.3ZM332 88.6c-.1 0-.2-10.9-.2-24.3s.1-24.3.2-24.3.2 10.9.2 24.3-.1 24.3-.2 24.3Z"></path><circle class="cls-15" cx="71.8" cy="27.3" r="27.3"></circle><circle class="cls-5" cx="71.8" cy="27.3" r="25.3"></circle><path d="M48.9 26.7A25.9 25.9 0 0 1 64.2 3.1a25.3 25.3 0 0 0 7.6 49.5h1.5a26 26 0 0 1-24.4-25.9Z" class="cls-10"></path><path class="cls-9" d="M97.1 27.3v-.4a5.7 5.7 0 0 0-.1-1.2 27.2 27.2 0 0 0-.7-4.6l-1-3.2a30.1 30.1 0 0 0-1.8-3.6 28.1 28.1 0 0 0-6.4-7.2 22.7 22.7 0 0 0-4.8-2.9 21.8 21.8 0 0 0-5.8-1.8A28.1 28.1 0 0 0 70 2a19.9 19.9 0 0 0-3.4.5 21.9 21.9 0 0 0-3.4 1 24.5 24.5 0 0 0-11.7 8.8 37 37 0 0 0-2.1 3.3 14.2 14.2 0 0 0-.8 1.8l-.7 1.9a23.6 23.6 0 0 0-1.3 8 24.4 24.4 0 0 0 1.3 8l.7 1.9.8 1.8a18.5 18.5 0 0 0 2.1 3.3 25.5 25.5 0 0 0 11.7 8.8l3.4 1 3.4.5a23.5 23.5 0 0 0 6.5-.4 26.2 26.2 0 0 0 5.8-1.8 22.7 22.7 0 0 0 4.8-2.9 23.6 23.6 0 0 0 6.4-7.2 30.2 30.2 0 0 0 1.8-3.6 14.6 14.6 0 0 0 1-3.2 19.7 19.7 0 0 0 .7-4.6 4.1 4.1 0 0 1 .1-1.2v1.2a27.2 27.2 0 0 1-.7 4.6l-1 3.2a24.1 24.1 0 0 1-1.8 3.6 26.6 26.6 0 0 1-6.4 7.2 25.5 25.5 0 0 1-4.8 2.9 28.1 28.1 0 0 1-5.8 1.9 28.6 28.6 0 0 1-6.6.4 19.9 19.9 0 0 1-3.4-.5 21.9 21.9 0 0 1-3.4-1 25 25 0 0 1-11.8-8.9 23 23 0 0 1-2.1-3.3l-.9-1.8-.7-1.9a24 24 0 0 1-1.3-8 23.6 23.6 0 0 1 1.3-8l.7-1.9a15.1 15.1 0 0 1 .9-1.8 18.5 18.5 0 0 1 2.1-3.3 26.2 26.2 0 0 1 11.8-8.9l3.4-1 3.4-.5a24 24 0 0 1 6.6.4 20.8 20.8 0 0 1 5.8 1.9 22.7 22.7 0 0 1 4.8 2.9 24.8 24.8 0 0 1 6.4 7.2 30.2 30.2 0 0 1 1.8 3.6 14.6 14.6 0 0 1 1 3.2 27.2 27.2 0 0 1 .7 4.6 6.3 6.3 0 0 1 0 1.6Z"></path><path class="cls-9" d="M71.9 6.1v4.2h-.4V6.5h-1v-.4ZM75.7 9.8v.4h-2.9v-.3l1.7-1.7c.5-.5.6-.7.6-1s-.3-.8-1-.8-.9.1-1.1.5l-.3-.3a1.8 1.8 0 0 1 1.5-.6c.8 0 1.4.4 1.4 1.1a1.6 1.6 0 0 1-.7 1.3l-1.4 1.4ZM83.1 9.2v4.2h-.4V9.6h-1v-.4ZM62 9.2v4.2h-.4V9.6h-1v-.4ZM64.2 9.2v4.2h-.4V9.6h-1v-.4ZM90.9 18.8v.4H88v-.3l1.7-1.7c.5-.5.6-.7.6-1s-.3-.8-1-.8-.9.1-1.1.5l-.3-.3a1.8 1.8 0 0 1 1.5-.6c.8 0 1.4.4 1.4 1.1a1.6 1.6 0 0 1-.7 1.3l-1.4 1.4ZM54.2 15.5v4.2h-.4v-3.8h-1v-.4ZM55.2 17.6c0-1.3.7-2.1 1.7-2.1s1.7.8 1.7 2.1-.7 2.1-1.7 2.1-1.7-.8-1.7-2.1Zm2.9 0c0-1.1-.5-1.7-1.2-1.7s-1.2.6-1.2 1.7.5 1.7 1.2 1.7 1.2-.6 1.2-1.7ZM92.7 28.3c0 .7-.5 1.2-1.5 1.2a2.3 2.3 0 0 1-1.5-.5l.2-.3a1.7 1.7 0 0 0 1.3.5c.7 0 1.1-.3 1.1-.8s-.4-.8-1.1-.8h-.3v-.3l1.2-1.4H90v-.4h2.7v.3l-1.2 1.5c.8-.2 1.2.3 1.2 1ZM53.9 27.4a1.8 1.8 0 0 1-1.9 2.1l-1-.2.2-.3.8.2c.9 0 1.5-.6 1.5-1.7v-.3a1.5 1.5 0 0 1-2.7-.5 1.3 1.3 0 0 1 1.4-1.3c1.1-.1 1.7.6 1.7 2Zm-.6-.9c0-.5-.4-.9-1.1-.9s-1 .3-1 .9a.9.9 0 0 0 1 .9c.7 0 1.1-.4 1.1-.9ZM57.3 36.7c0 .7-.6 1.2-1.6 1.2s-1.6-.5-1.6-1.2a1.1 1.1 0 0 1 .8-1 1.1 1.1 0 0 1-.7-.9c0-.7.6-1.1 1.5-1.1s1.5.4 1.5 1.1a.9.9 0 0 1-.7.9 1 1 0 0 1 .8 1Zm-.4 0c0-.5-.4-.8-1.2-.8s-1.2.3-1.2.8.4.8 1.2.8 1.2-.3 1.2-.8Zm-1.2-1.2c.6 0 1-.3 1-.7s-.4-.8-1-.8-1 .3-1 .7.4.8 1 .8ZM64 41.1v.3l-1.7 3.8h-.5l1.7-3.8h-2.1v.8H61V41h3ZM83.1 44a1.3 1.3 0 0 1-1.5 1.3 2.3 2.3 0 0 1-1.5-.5l.2-.3a1.7 1.7 0 0 0 1.3.5c.7 0 1.1-.3 1.1-.8s-.3-.9-1.4-.9h-.9l.2-2.1h2.3v.4H81v1.3h.5c1.1-.1 1.6.4 1.6 1.1ZM73.6 46.7a1.3 1.3 0 0 1-1.4 1.3c-1.1 0-1.7-.8-1.7-2.1a1.8 1.8 0 0 1 1.9-2.1l1 .2-.2.3-.8-.2c-.9 0-1.5.6-1.5 1.7v.3a1.3 1.3 0 0 1 1.3-.7 1.3 1.3 0 0 1 1.4 1.3Zm-.4 0a.9.9 0 0 0-1-.9 1 1 0 0 0-1.1.9c0 .5.4.9 1.1.9a1 1 0 0 0 1-.9ZM90.9 36.7h-.8v1.1h-.4v-1.1h-2.3v-.3l2.2-2.8h.5L88 36.3h1.8v-1h.4v1h.8v.4ZM71.6 14.8l-.9 15.5h1.7l-.2-15.6Z"></path><path class="cls-9" d="m67.9 25.5-.6 1.6 18.8 6.7.2-.5-18.4-7.8z"></path><path class="cls-15" d="M76.2 24.2h-.4l-3 2.2h.1L61.6 35h.1l11.4-8.6h.1l3-2.2a.1.1 0 0 0 0-.2Z"></path><path class="cls-11" d="M71.8 28.2a.5.5 0 1 1 .1-.7.5.5 0 0 1-.1.7Z"></path><path class="cls-7" d="M312.8 221.4h6.5v124.8h-6.5zM50.8 222.5h6.5v124.1h-6.5z"></path><path class="cls-7" d="M32.1 217.5h304v14.2h-304z"></path><path class="cls-11" d="M44.2 211.8h51.7v5.8H44.2z"></path><path class="cls-4" d="M44.2 212.5h50.9v4.4H44.2z"></path><path d="M85.9 211.8H96v5.8H85.9z" class="cls-10"></path><path class="cls-9" d="M95.1 213.5ZM95.1 214.6ZM95.1 215.8ZM85.9 217.5Z"></path><path class="cls-3" d="M83 197.7h16.4v5.7H83z"></path><path class="cls-9" d="M48.6 196.6H100v1.2H48.6zM48.6 203.1h51.2v1.2H48.6z"></path><path class="cls-9" d="m83 196.9-.1 7.2H48.7v-7.2H83z"></path><ellipse class="cls-9" cx="76.5" cy="200.5" rx="1.9" ry="1.8"></ellipse><path class="cls-1" d="M74.4 200.5a2.1 2.1 0 0 1 2.1-2 2 2 0 0 1 2.1 2 2.1 2.1 0 0 1-4.2 0Zm.6 0a1.6 1.6 0 1 0 1.6-1.5 1.5 1.5 0 0 0-1.6 1.5Z"></path><path class="cls-9" d="M84.3 201.9ZM84.3 200.9ZM84.3 199.9ZM84.3 198.9Z"></path><path class="cls-5" d="M52.5 198.5h15.4v3.8H52.5z"></path><path class="cls-1" d="M65.5 201.9a4.2 4.2 0 0 0 .1-1.5 11.9 11.9 0 0 0-.1-1.5 11.3 11.3 0 0 0 0 3ZM63.5 201.9a4.2 4.2 0 0 0 .1-1.5 11.9 11.9 0 0 0-.1-1.5 4.2 4.2 0 0 0-.1 1.5 2.6 2.6 0 0 0 .1 1.5ZM61.4 201.9a4.2 4.2 0 0 0 .1-1.5 11.9 11.9 0 0 0-.1-1.5 11.3 11.3 0 0 0 0 3ZM59.4 201.9a4.2 4.2 0 0 0 .1-1.5 11.9 11.9 0 0 0-.1-1.5 4.2 4.2 0 0 0-.1 1.5 2.6 2.6 0 0 0 .1 1.5ZM57.3 201.9a4.2 4.2 0 0 0 .1-1.5 11.9 11.9 0 0 0-.1-1.5 11.3 11.3 0 0 0 0 3ZM55.3 201.9a4.2 4.2 0 0 0 .1-1.5 11.9 11.9 0 0 0-.1-1.5 11.9 11.9 0 0 0-.1 1.5 4.2 4.2 0 0 0 .1 1.5Z"></path><path class="cls-9" d="M82.8 204.3a25.8 25.8 0 0 0 .1-3.8l-.1-3.8a25.8 25.8 0 0 0-.1 3.8 15.7 15.7 0 0 0 .1 3.8Z"></path><path class="cls-4" d="M50.4 185.5v-1.9l43.9.1h2.6v1.8h-2.6v11.2H46.9v-11.2h3.5z"></path><path class="cls-3" d="M61.2 196.7v-13.1H50.4v1.9h-3.5v11.2h14.3z"></path><path class="cls-1" d="M50.4 183.6ZM47.3 189.5h23.5a508 508 0 0 0-23.5 0ZM46.9 193.5h23.6c-13-.2-23.6-.1-23.6 0ZM96.5 185.5Z"></path><path class="cls-3" d="M80.9 205.1h16.4v5.7H80.9z"></path><path class="cls-15" d="M46.5 204.1h51.4v1.2H46.5zM46.5 210.6h51.2v1.2H46.5z"></path><path class="cls-15" d="M80.8 204.4v7.1H46.5v-7.1h34.3z"></path><path class="cls-9" d="M72.5 207.9a1.8 1.8 0 0 0 1.9 1.8 1.9 1.9 0 0 0 1.9-1.8 1.8 1.8 0 0 0-1.9-1.8 2 2 0 0 0-1.9 1.8Z"></path><path class="cls-1" d="M72.2 207.9a2.1 2.1 0 1 1 2.1 2 2 2 0 0 1-2.1-2Zm.6 0a1.6 1.6 0 1 0 1.6-1.5 1.6 1.6 0 0 0-1.6 1.5Z"></path><path class="cls-9" d="M82.1 209.4ZM82.1 208.4ZM82.1 207.4ZM82.1 206.4Z"></path><path class="cls-5" d="M50.4 205.9h15.4v3.8H50.4z"></path><path class="cls-1" d="M63.3 209.3a4.2 4.2 0 0 0 .1-1.5 11.9 11.9 0 0 0-.1-1.5 4.2 4.2 0 0 0-.1 1.5 11.9 11.9 0 0 0 .1 1.5ZM61.3 209.3a4.2 4.2 0 0 0 .1-1.5 11.9 11.9 0 0 0-.1-1.5 11.9 11.9 0 0 0-.1 1.5 4.2 4.2 0 0 0 .1 1.5ZM59.3 209.3a4.2 4.2 0 0 0 .1-1.5 11.9 11.9 0 0 0-.1-1.5 4.2 4.2 0 0 0-.1 1.5 2.6 2.6 0 0 0 .1 1.5ZM57.2 209.3a4.2 4.2 0 0 0 .1-1.5 11.9 11.9 0 0 0-.1-1.5 11.3 11.3 0 0 0 0 3ZM55.2 209.3a4.2 4.2 0 0 0 .1-1.5 11.9 11.9 0 0 0-.1-1.5 4.2 4.2 0 0 0-.1 1.5 2.6 2.6 0 0 0 .1 1.5ZM53.1 209.3a4.2 4.2 0 0 0 .1-1.5 11.9 11.9 0 0 0-.1-1.5 11.3 11.3 0 0 0 0 3Z"></path><path class="cls-9" d="M80.6 211.7a25.8 25.8 0 0 0 .1-3.8l-.1-3.8a25.8 25.8 0 0 0-.1 3.8 25.8 25.8 0 0 0 .1 3.8Z"></path><path d="M195.1 231.7s21.5-14.2 13.9-14.2h-10.6Z" class="cls-14"></path><path class="cls-9" d="m132.5 335-10.7 22.5-13.3 15.2a2.6 2.6 0 0 0 .3 3.7 2.5 2.5 0 0 0 2.2.5c4.9-1.5 23-7 23.7-8.7s12.8-22.9 12.8-22.9Z"></path><g class="cls-10"><path class="cls-7" d="m132.5 335-10.7 22.5-13.3 15.2a2.6 2.6 0 0 0 .3 3.7 2.5 2.5 0 0 0 2.2.5c4.9-1.5 23-7 23.7-8.7s12.8-22.9 12.8-22.9Z"></path></g><path class="cls-11" d="m108.8 376.4 26.7-9.8-.5.9c-.4.8-.4 1.1-1.2 1.4a230.2 230.2 0 0 1-23.4 8.4c-.8.3-1.6-.9-1.6-.9Z"></path><path class="cls-9" d="M136.6 314.3s5.1-14 5.6-18.3 2.5-13.8 4.2-22.6 7.6-31.8 7.6-31.8l7.2-55.9 40.1-1s0 25.9-4.5 40.6c-3.8 12.4-26.1 57.4-28.2 70.7s-28.3 65.5-28.3 65.5l-19-9.5Z"></path><path class="cls-7" d="m124.2 335.8 7 19.5s-17.4 13-16.6 16.7l37.5-10.8-9.7-30Z"></path><path class="cls-11" d="M124.2 335.8h.3l.9-.2 3.6-.9 13.4-3.4h.1l9.8 30v.2h-.2l-16.1 4.6-21.5 6.1h-.2v-.2a3.7 3.7 0 0 1 .4-1.8l.9-1.4a26.2 26.2 0 0 1 2.2-2.5l4.6-4.3c3-2.6 6-4.9 8.7-7v.2l-5.1-14.3-1.3-3.9a9.3 9.3 0 0 1-.3-1l-.2-.4a.6.6 0 0 1 .1.4l.4 1 1.4 3.9 5.2 14.2h-.1c-2.7 2-5.6 4.4-8.6 7a59.5 59.5 0 0 0-4.5 4.3l-2.1 2.4-.9 1.4a2.1 2.1 0 0 0-.4 1.5l-.3-.2 21.5-6.2 16.1-4.6v.3l-9.7-30h.2l-13.3 3.3-3.6.9-.9.2Z"></path><path class="cls-11" d="m152.1 361.2-.9-3.1-35.6 11.5s-1.5 1.2-1 2.4Z"></path><path class="cls-9" d="M128.6 214.6c-.5 1.1-19.9 50.9-19.4 58.3s17.7 80.9 17.7 80.9l22.5-7.3s-2.9-20.9-6.4-39-2.7-20.9-2.7-20.9-4.7-5.9-3.9-5.7 2.7-.2 2.6-1.5a18.5 18.5 0 0 0-1-3.8l16.1-32 13.4-58.2-30.3 1.5Z"></path><path class="cls-11" d="M161.5 212.7a1.8 1.8 0 0 1-.1.5l-.3 1.4-1.2 5.1-4.3 16.7-6.3 23.6a1.8 1.8 0 0 1 .1-.5l.3-1.4 1.2-5.1 4.3-16.7 6.3-23.6Z"></path><path class="cls-11" d="M159 222.5a40.8 40.8 0 0 1-4.7-3.7 42.3 42.3 0 0 1-4.4-4.1 40.8 40.8 0 0 1 4.7 3.7 32.6 32.6 0 0 1 4.4 4.1ZM137.9 275.6v.2a3.6 3.6 0 0 0 .3.7 16.8 16.8 0 0 1 .7 2.7 1.8 1.8 0 0 1-.2 1 2.2 2.2 0 0 1-.9.7l-1.2.2h-.4l.3.6a57.4 57.4 0 0 0 3.7 4.9 33.2 33.2 0 0 0 .3 5.3l.8 6.1 2.6 14c1.9 10.1 3.8 21.9 5.6 34.5v.2l-.2-.2-15 4.9-7.6 2.5h-.2v.1a4408.2 4408.2 0 0 1-16.5-74.6l-.8-4.7a5.7 5.7 0 0 1-.1-1.2 7.4 7.4 0 0 0 .2 1.2l.9 4.7 3.7 17.2A4661 4661 0 0 0 127 354l-.3-.2 7.6-2.5 15-4.9v.2c-1.8-12.6-3.7-24.4-5.5-34.5-.9-5.1-1.9-9.8-2.5-14l-.8-6.1a33.3 33.3 0 0 1-.2-5.4 43.7 43.7 0 0 1-3.6-5l-.3-.6c0-.1-.1-.1 0-.2h.6a2 2 0 0 0 1.1-.2 1.6 1.6 0 0 0 .8-.6 1.5 1.5 0 0 0 .2-.9 10.3 10.3 0 0 0-.7-2.7 2.5 2.5 0 0 1-.2-.7Z"></path><path d="m130.3 352.7.6 1.7 17.5-4.5-.9-2.8-17.2 5.6zM135.6 280.6a13.9 13.9 0 0 0-7.9-2.4 1.5 1.5 0 0 0-.9.2c-.3.1-.5.5-.4.7s.6.5 1 .5l8.3 1" class="cls-10"></path><path class="cls-5" d="m137.1 107.6 16.5-6.3 4.4-5.1 20.6-2 8.6 7.6s16.8 4 17.6 6-7.9 54.2-7.9 54.2-.5 28.8-3 30-36.1 13.5-50.5-1.1c-.3-.3-4.4-65.4-4.6-66s-1.7-17.3-1.7-17.3Z"></path><path d="m153.2 184.3 6.3 10.1 8.3-10.1-.7-20.7-.7 4.2-13.2 16.5z" class="cls-10"></path><path class="cls-8" d="m163.2 113.8-10.8 69.3 6.2 8.6 8.2-8.2 1-69.7h-4.6z"></path><path style="fill:#f3725f" d="m161.5 110.4 1.7 3.4h4.6l1.5-3.3-2.8-3.5h-2.3l-2.5 3.4"></path><path class="cls-9" d="m177.2 106.6-.4.5-1.3 1.2-4.8 4.2-.2.2v-.2a81.1 81.1 0 0 0-4.2-5.5l-1-1.2h.3l-5 6.1h-.2a28.1 28.1 0 0 1-3.1-3.4l-.7-1.1a1.1 1.1 0 0 0-.2-.4l1 1.4a19 19 0 0 0 3.2 3.3h-.3l4.9-6.2.2-.2.2.2 1.1 1.2c1.6 1.9 3 3.9 4.2 5.6h-.3l4.9-4.1 1.4-1.1a1.1 1.1 0 0 1 .3-.5Z"></path><path class="cls-15" d="M179.9 94.9s-8.7 45.2-7.9 53.3 3.5 29.3 5 39.3 4.4 22.8 6 29.5c.5 2.1 2.9 6 4.9 5.4 10.1-3 20.1-8.8 22.1-9.9 0 0-2.2-21.8-8.2-36.2l-4.3-10.7 3.5-61.3-7.9-2.2-6.2-1.5Z"></path><path class="cls-9" d="M172.7 155.1a2.8 2.8 0 0 1 .1-.6l.5-1.8 2.1-6.6c1.9-5.5 4.6-13.1 7.8-21.5l4.5-11.9 1-2.7a3.3 3.3 0 0 0 .4-1.3 1.7 1.7 0 0 0-.2-1.2 2.2 2.2 0 0 0-.7-.9l-1.1-.5-2.1-.9 1.8-.9a1.7 1.7 0 0 0 .9-1.3 1.8 1.8 0 0 0-.4-1.4l-.8-1-1.4-1.2c-.3-.2-.5-.4-.4-.5h.1l.4.3 1.5 1.1.9 1a2 2 0 0 1 .5 1.5 1.9 1.9 0 0 1-1.1 1.5l-1.8.9v-.3l2.1.9 1.1.5a2.4 2.4 0 0 1 1.1 2.4l-.4 1.3-1 2.7-4.5 11.9-7.9 21.4-2.3 6.5a13.2 13.2 0 0 0-.5 1.8 3.5 3.5 0 0 1-.2.8Z"></path><path d="M135.4 213.4a7.5 7.5 0 0 0 4-3.9c1.5-3.2 9.9-38.2 9.9-38.2l-13.9 42.1" class="cls-10"></path><path class="cls-15" d="M124.1 209.9s5.4 6.3 9.4 5 5.6-11.2 8.3-18.8 7.5-24.2 9.9-33.5a119.5 119.5 0 0 0 3.9-23.5c.5-7.5.6-33.4 1.1-37.9l.5-4-4.2 4.4-16.2 4.1 3.1 58.4Z"></path><path class="cls-9" d="m152.8 101.8-.4.5-1.2 1.5-.8 1.1a3.7 3.7 0 0 0-.7 1.4 2.5 2.5 0 0 0 .8 1.5 10 10 0 0 0 1.5 1.4l.5.4-.7-.2a4.5 4.5 0 0 0-2-.1 2.5 2.5 0 0 0-.9.4l-.2.2v.6l.5 5 1.6 11.4 3.3 21.5 1 6.5.3 1.8a2.8 2.8 0 0 1 .1.6 1.5 1.5 0 0 1-.1-.6 16.4 16.4 0 0 1-.3-1.8l-1.2-6.5-3.5-21.5-1.6-11.5a47.5 47.5 0 0 1-.4-5.1v-.8a.3.3 0 0 1 .1-.2l.2-.2a2.2 2.2 0 0 1 1.1-.5 7.9 7.9 0 0 1 2.2.1v.3l-1.5-1.5-.6-.8a1.6 1.6 0 0 1-.3-.9 4.2 4.2 0 0 1 .7-1.5l.8-1.1 1.2-1.5Z"></path><path d="M138.4 169.6s11.2 1.5 16.9-1.4c0 0 23.9 6.6 31.1 6.6s11.3-2.9 13-7.5l-37.6-3.8Z" class="cls-10"></path><path class="cls-15" d="M191.8 125.4c-.4.9-7.9 27.9-7.9 27.9l-33.2-4.6-6.3 13c.5.3 33.2 10.2 46.2 10.3 10.1 0 15.2-11.5 17.6-24.3s3-19 3.1-23.5c.6-18.5-2.5-17.7-10.3-20"></path><path class="cls-15" d="M201 104.2h.5l1.5.4 2.4.7a7.7 7.7 0 0 1 3 1.7 7.8 7.8 0 0 1 2.1 3.8 36.4 36.4 0 0 1 .8 5.1l.1 5.9-.3 6.7a194 194 0 0 1-2.1 15.1 69.6 69.6 0 0 1-4.5 16.9 23.9 23.9 0 0 1-5.3 7.9l-.4.4-.5.4-1 .7a9.1 9.1 0 0 1-2.2 1.1l-1.2.4-1.2.3h-2.6a70.9 70.9 0 0 1-10.2-1.2l-10.3-2.1c-4.4-1-8.7-2.1-13-3.3l-6.3-1.8-6.1-1.9h-.2v-.2l6.3-12.9h.2l33.2 4.6h-.2a1490 1490 0 0 1 5.8-20.5l1.6-5.5.4-1.4.2-.5a1.8 1.8 0 0 1-.1.5l-.4 1.4-1.5 5.5L184 153h-.1l-33.2-4.5h.2l-6.3 12.9-.2-.2h.8l.7.2 1.5.5 3.1.9 6.3 1.8c4.2 1.1 8.5 2.3 13 3.3s6.9 1.6 10.3 2.1a71.2 71.2 0 0 0 10.1 1.2h2.4l1.2-.3 1.1-.4a8.4 8.4 0 0 0 2.1-1.1l1-.7.5-.4.4-.4a23.7 23.7 0 0 0 5.2-7.8c2.5-5.6 3.6-11.4 4.5-16.8s1.8-10.4 2.2-15.1q.3-3.4.3-6.6l-.1-5.9a26.2 26.2 0 0 0-.7-5.1 6.9 6.9 0 0 0-5-5.4l-2.4-.8-1.5-.4c-.2.3-.4.2-.4.2Z"></path><path class="cls-9" d="M187.9 158.7c-.1.1-.8-1.3-1.9-2.7a30.3 30.3 0 0 1-2-2.6 6.7 6.7 0 0 1 2.4 2.3 7.2 7.2 0 0 1 1.5 3ZM196.8 108.2c.1.1-1.1 2.4-2 5.5s-1.3 5.7-1.5 5.7a5.5 5.5 0 0 1 .1-1.7l.9-4.1c.4-1.6 1.1-2.9 1.5-3.9a7.2 7.2 0 0 1 1-1.5Z"></path><path class="cls-17" d="M182.7 143.6c-2.5-.7-9.5 1.6-9.5 1.6v.5l1.2 9.5 4.8-2h4.5l2.2-7.6c.1-.1-.7-1.3-3.2-2Z"></path><path class="cls-1" d="m173.3 144.9-3.4.2 1.1 13.5 3.8-.9-1.5-12.8z"></path><path class="cls-15" d="M136.7 105.7c-2 .6-3.2 2.7-6.1 13.1-1.5 5.6-5.1 14.8-6.5 19.3-.9 2.7-6.7 18.9-5.2 23.4s8.3 10 21.7 7.7 30.6-8.6 30.6-8.6l-1.3-15.6-31.5 2.8.3-6.6Z"></path><path class="cls-9" d="m139.1 147.7-.9-15.3c-.4-8.5-.5-15.3-.4-15.3l.9 15.3.4 15.3ZM137.4 147.7a20.4 20.4 0 0 1-2.8 2.8 29.2 29.2 0 0 1-2.9 2.7 12 12 0 0 1 2.6-3 11.5 11.5 0 0 1 3.1-2.5Z"></path><path class="cls-9" d="M136.1 169.6h.7l2.1-.3c1.8-.3 4.4-.7 7.5-1.5a237.8 237.8 0 0 0 24.8-7.5v.2l-.5-6-.8-9.6.2.2-23.3 1.9-6.8.5h-1.8l1.8-.2 6.8-.6 23.3-2.1h.2v.2l.8 9.6.5 6v.2h-.2a224.1 224.1 0 0 1-24.9 7.3c-3.2.7-5.8 1.1-7.6 1.4l-2.1.2h-.6Z"></path><path class="cls-17" d="M165.4 48.3h-.9a16.6 16.6 0 0 0-15.9 15.9c-.3 8-.6 16.9-.3 21.2.5 8.9 9.4 9.9 9.4 9.9v2.5l7.9 7.1 12.9-10 .7-29.4c.5-9-4.5-17-13.8-17.2Z"></path><path class="cls-18" d="M157.7 95.5a21.8 21.8 0 0 0 11.5-3.9s-2.5 6.8-11.4 6.4Z"></path><path class="cls-17" d="M178.8 72.4c.1-.1 6-2.1 6.1 4s-6.1 4.9-6.1 4.7Z"></path><path class="cls-18" d="m180.7 78.8.3.2h.8a2.7 2.7 0 0 0 1.2-2.4 3.3 3.3 0 0 0-.3-1.5c-.2-.4-.5-.8-.8-.8s-.6.1-.6.3l-.1.3a.6.6 0 0 1-.1-.4.8.8 0 0 1 .2-.4l.6-.2c.5 0 .9.5 1.1.9a4.7 4.7 0 0 1 .4 1.7c0 1.2-.6 2.4-1.5 2.6a1.1 1.1 0 0 1-1-.2l-.2-.1Z"></path><path class="cls-9" d="M144.9 61.6c3.8.6 7.7.3 10.8-2.1a17.5 17.5 0 0 0 2.4-2.3c1.4-1.5 2.4-3.5 4.2-4.4s5.2-.4 7.7.5h-.1a10.7 10.7 0 0 1 3.5 2.5 34.2 34.2 0 0 0 2.7 17.2 1.9 1.9 0 0 0 1 1c1.4.6 1-1.3 2-1.7s1.2-.1 2.8-.2.9-5.7 1.4-8a10.2 10.2 0 0 0 2.6-6.1 15.6 15.6 0 0 0-1.1-4.7c-1.5-2.9-2.4-4.4-4.8-5.2h-.1a6.6 6.6 0 0 0-6.5.7 8.2 8.2 0 0 0-6.4-6.4 20.6 20.6 0 0 0-11 1 18.8 18.8 0 0 0-6.2 4.7l-.9 1a.1.1 0 0 1-.1.1 6.2 6.2 0 0 1-2.3.7 3.1 3.1 0 0 1-3.1-1.3c-.3-.3-.6-.7-1-.6a1 1 0 0 0-.5.6 3.9 3.9 0 0 0 1.1 3.8 5 5 0 0 0 1.7 1.1 4.5 4.5 0 0 1-2.5 1.4 3.2 3.2 0 0 0-2.1 1.3 2.1 2.1 0 0 0-.4 1.2c.2 2.6 2.7 3.8 5.2 4.2Z"></path><path class="cls-11" d="m143.3 58.9.3.2.4.2.5.3a6.9 6.9 0 0 0 3.8.6 10 10 0 0 0 5.4-2.1 17.6 17.6 0 0 0 4.6-5.4l1.7-3.2a11.1 11.1 0 0 1 2-2.7 6 6 0 0 1 2.6-1.6l1.4-.2 1.2.2a5 5 0 0 1 1.9 1.1 3.8 3.8 0 0 1 1 1.3l.5 1.3v-.3a3.4 3.4 0 0 0-.4-1 3.8 3.8 0 0 0-1-1.3 6.9 6.9 0 0 0-1.9-1.2l-1.3-.2a3.4 3.4 0 0 0-1.4.2 6 6 0 0 0-2.6 1.6 11.8 11.8 0 0 0-2 2.8l-1.7 3.2a16.9 16.9 0 0 1-4.5 5.3 10.8 10.8 0 0 1-5.3 2.1 7.9 7.9 0 0 1-3.8-.6 3.7 3.7 0 0 1-1.4-.6Z"></path><path class="cls-11" d="m142.4 55 .3.2 1 .5 1.5.5 1.9.2 1.9-.2 1.5-.4 1-.4.3-.2-1.4.5-1.5.4H147l-1.9-.2-1.5-.4ZM176.6 59.6a1.5 1.5 0 0 0-.1.6v1.6a2.3 2.3 0 0 0 .2 1.1c.1.2.3.5.6.4a1.5 1.5 0 0 0 .7-.3l2.2-2-.3-.2-.3 1.3-.8 3.5v.6l.4-.4a17.3 17.3 0 0 0 2.4-3 9.2 9.2 0 0 0 .7-1.3 20.2 20.2 0 0 1-3.3 4l.3.2.8-3.5.3-1.3.2-.6-.5.5-2.1 2c-.2.1-.3.3-.5.3l-.3-.2a3.6 3.6 0 0 1-.2-1 12.2 12.2 0 0 1-.4-2.3Z"></path><path class="cls-9" d="m159.6 78.6-2.2-.3c-.4 0-.7-.1-.8-.3a1.4 1.4 0 0 1 .2-1l.9-2.7c1.3-3.8 2.2-7 2-7.1s-1.3 3-2.6 6.9l-.9 2.7a2.2 2.2 0 0 0-.1 1.4c.1.3.4.4.6.5h.6a6.5 6.5 0 0 0 2.3-.1ZM153.1 72a1.3 1.3 0 0 0 1.3 1.3 1.2 1.2 0 0 0 1.3-1.2 1.3 1.3 0 0 0-1.3-1.3 1.2 1.2 0 0 0-1.3 1.2ZM151.2 68.2c.2.2 1.1-.6 2.5-.7s2.4.6 2.6.4-.1-.4-.6-.7a3.7 3.7 0 0 0-2.1-.6 3.4 3.4 0 0 0-2 .7 2.5 2.5 0 0 0-.4.9ZM165.4 72a1.3 1.3 0 0 0 1.3 1.3 1.2 1.2 0 0 0 1.3-1.2 1.3 1.3 0 0 0-1.3-1.3 1.2 1.2 0 0 0-1.3 1.2ZM164.8 67.9c.2.2 1.1-.6 2.5-.7s2.4.6 2.6.4-.1-.4-.6-.7a3.7 3.7 0 0 0-2.1-.6 3.4 3.4 0 0 0-2 .7c-.4.5-.5.8-.4.9ZM164.2 63.5c.2.3 1.5-.1 3.2-.2s3 .1 3.2-.3-.2-.5-.8-.8a4.5 4.5 0 0 0-2.4-.4 6.8 6.8 0 0 0-2.4.7c-.7.5-.9.9-.8 1ZM151 64c.3.3 1.4-.1 2.8-.1s2.5.1 2.8-.2-.1-.5-.6-.8a4.6 4.6 0 0 0-2.3-.5 4.4 4.4 0 0 0-2.2.7c-.5.5-.6.8-.5.9ZM164.5 79.7c-.2 0-.1 1.4-1.3 2.5s-2.7 1-2.7 1.2.4.3 1 .2a3.7 3.7 0 0 0 2.2-.9 3.1 3.1 0 0 0 1-2.1c.1-.6-.1-.9-.2-.9Z"></path><path class="cls-17" d="M146.7 141.1a20.4 20.4 0 0 0-1.3-4.2c-.6-.8-6.4-6.6-6.4-6.6a1.5 1.5 0 0 0-.9 2l1.1 2.3s-5-3.6-5.6-3.4a1.7 1.7 0 0 0-.5 2.1 2.6 2.6 0 0 1 .5.9 5.8 5.8 0 0 0-2.1-.4c-.6.1-1.1 1.3-.5 1.8l2.4 1.9s-1.2-.7-1.6.3a2.8 2.8 0 0 0 .1 2.1c.2.5 4.6 4.3 5 5a13.7 13.7 0 0 1 .8 2.7l9.6-1c.1-.1-.6-5.5-.6-5.5Z"></path><path class="cls-18" d="m144.4 140.6-.7-1-1.6-2.4a10.9 10.9 0 0 0-2.2-1.8l-.9-.8c0-.1.5.1 1.1.5a10.4 10.4 0 0 1 2.3 1.8 14.8 14.8 0 0 1 1.5 2.5l.5 1.2ZM141.7 140.9l-.3-.3-.7-.9a11.3 11.3 0 0 0-1-1.3l-1.7-1.1a37.1 37.1 0 0 1-4.5-3 24.7 24.7 0 0 1 4.7 2.6 18.8 18.8 0 0 1 1.8 1.2 9.4 9.4 0 0 1 1 1.4c.6.8.8 1.4.7 1.4ZM140.4 143.6a5.5 5.5 0 0 1-.9-1.3l-.4-.7h-.3l-.4-.3-1.7-1.1a37.9 37.9 0 0 1-4.3-3 25.8 25.8 0 0 1 4.6 2.6l1.7 1.2.4.3.2.2.2.2.3.7c.4.6.7 1.1.6 1.2Z"></path></g></g></svg>