<svg xmlns="http://www.w3.org/2000/svg" viewBox="0 0 156.7 36.8"><defs><linearGradient id="linear-gradient" x1="-4.4" y1="58.1" x2="50.5" y2="-28.9" gradientTransform="matrix(1 0 0 -1 0 39)" gradientUnits="userSpaceOnUse"><stop offset="0" stop-color="#b92025"></stop><stop offset=".2" stop-color="#bf2d2c"></stop><stop offset=".5" stop-color="#d04a46"></stop><stop offset="1" stop-color="#f37677"></stop></linearGradient><style>.cls-2{fill:#fff}.cls-3{fill:#010101}</style></defs><g id="Layer_2" data-name="Layer 2"><g id="Layer_1-2" data-name="Layer 1"><path d="M27 36.8H11.5A11.5 11.5 0 0 1 0 25.3V11.5A11.5 11.5 0 0 1 11.5 0H27a11.5 11.5 0 0 1 11.5 11.5v13.8A11.6 11.6 0 0 1 27 36.8Z" style="fill:url(#linear-gradient)"></path><path class="cls-2" d="M14.9 21.8H22v8.7a12.6 12.6 0 0 1-7.1-2.1c-3.7-2.5-5.8-6-5.6-10.5a11.5 11.5 0 0 1 5.2-9.1 12.6 12.6 0 0 1 6.7-2.3c.4 0 .8 0 .8.6v8h-5.7c-1.7 0-1.5-.2-1.5 1.5l.1 5.2ZM22.2 21.6v-6.5h7v6.5Z"></path><path class="cls-3" d="m60.3 20.5 3.6 1.1a7.8 7.8 0 0 1-2.7 4.4 7.6 7.6 0 0 1-4.8 1.4 7.5 7.5 0 0 1-5.9-2.5 9.8 9.8 0 0 1-2.3-6.8 10 10 0 0 1 2.3-7 8 8 0 0 1 6.2-2.5 7.7 7.7 0 0 1 5.4 2 8.7 8.7 0 0 1 1.9 3.3l-3.6.9a4.1 4.1 0 0 0-1.3-2.2 4.1 4.1 0 0 0-2.5-.8 4.5 4.5 0 0 0-3.3 1.4 7.3 7.3 0 0 0-1.3 4.7c0 2.3.4 3.9 1.2 4.9a3.9 3.9 0 0 0 3.2 1.5 3.7 3.7 0 0 0 2.5-.9 6 6 0 0 0 1.4-2.9ZM66.1 20.4A6.9 6.9 0 0 1 67 17a6.4 6.4 0 0 1 2.4-2.5 6.8 6.8 0 0 1 3.5-.9 6.5 6.5 0 0 1 6.8 6.8 6.7 6.7 0 0 1-6.7 6.9 7.7 7.7 0 0 1-3.4-.8 5.3 5.3 0 0 1-2.5-2.4 7.3 7.3 0 0 1-1-3.7Zm3.6.2a4.5 4.5 0 0 0 .9 3 3.1 3.1 0 0 0 4.6 0 4.5 4.5 0 0 0 .9-3 4.5 4.5 0 0 0-.9-3 3.1 3.1 0 0 0-4.6 0 4.1 4.1 0 0 0-.9 3ZM94.5 27.1h-3.2v-1.9a5.1 5.1 0 0 1-1.9 1.7 4.6 4.6 0 0 1-2.2.6 5.1 5.1 0 0 1-3.9-1.8 7.3 7.3 0 0 1-1.6-5.1 7.3 7.3 0 0 1 1.6-5.1 5.1 5.1 0 0 1 4-1.7 4.9 4.9 0 0 1 3.8 1.8V9.1h3.5v18Zm-9.3-6.8a5.6 5.6 0 0 0 .6 3 2.7 2.7 0 0 0 2.4 1.4 2.3 2.3 0 0 0 2-1 5.2 5.2 0 0 0 .8-3.1 5.7 5.7 0 0 0-.8-3.3 2.4 2.4 0 0 0-2.1-1 2.6 2.6 0 0 0-2.1 1 5.1 5.1 0 0 0-.8 3ZM105.5 22.9l3.5.6a5.3 5.3 0 0 1-2.1 2.9 6.1 6.1 0 0 1-3.6 1 5.9 5.9 0 0 1-5.1-2.2 7.3 7.3 0 0 1-1.3-4.5 7.3 7.3 0 0 1 1.7-5.1 5.7 5.7 0 0 1 4.3-1.9 5.6 5.6 0 0 1 4.6 1.9 8.5 8.5 0 0 1 1.6 5.9h-8.7a3.6 3.6 0 0 0 .8 2.4 2.5 2.5 0 0 0 2 .9 2.3 2.3 0 0 0 1.4-.4 2 2 0 0 0 .9-1.5Zm.2-3.5a3.2 3.2 0 0 0-.8-2.3 2.5 2.5 0 0 0-1.8-.8 2.6 2.6 0 0 0-1.9.8 3.3 3.3 0 0 0-.7 2.3ZM110.8 23.4l3.5-.5a2.3 2.3 0 0 0 .9 1.5 2.9 2.9 0 0 0 1.9.5 3.4 3.4 0 0 0 2-.5 1.1 1.1 0 0 0 .5-.9 1.4 1.4 0 0 0-.2-.7 3.5 3.5 0 0 0-1.2-.5 17.6 17.6 0 0 1-5.3-1.7 3.5 3.5 0 0 1-1.6-3 3.7 3.7 0 0 1 1.3-2.9 6.2 6.2 0 0 1 4.2-1.2 7.2 7.2 0 0 1 4 .9 4.4 4.4 0 0 1 1.8 2.6l-3.3.6a2 2 0 0 0-.8-1.2 2.9 2.9 0 0 0-1.7-.4 3.5 3.5 0 0 0-2 .4.8.8 0 0 0-.4.7.7.7 0 0 0 .3.6 12.9 12.9 0 0 0 3.3 1 9.8 9.8 0 0 1 3.9 1.5 3.3 3.3 0 0 1 1.1 2.6 4 4 0 0 1-1.5 3.1 6.5 6.5 0 0 1-4.5 1.3 7.8 7.8 0 0 1-4.3-1.1 4 4 0 0 1-1.9-2.7ZM126.2 27.1V9h12.4v3.1h-8.7v4.3h7.6v3.1h-7.6v7.7h-3.7ZM139.8 27.1l6.2-9.5-5.6-8.7h4.3l3.6 5.8 3.6-5.8h4.2l-5.6 8.8 6.2 9.3h-4.4l-4-6.3-4 6.3h-4.5Z"></path></g></g></svg>