<svg xmlns="http://www.w3.org/2000/svg" viewBox="0 0 375.4 363.7"><defs><style>.cls-1{fill:#fff}.cls-2,.cls-5{fill:#e0e0e0}.cls-3{opacity:.3}.cls-5{fill-rule:evenodd}.cls-6{fill:#ebebeb}.cls-7{fill:#263238}.cls-8{fill:#d71f27}.cls-9{fill:#e7515b}.cls-10{fill:#010101}.cls-11{fill:#455b64}.cls-12{fill:#fafbfb}.cls-13{fill:#fbbd9d}.cls-14{fill:#f3757a}.cls-15{opacity:.6}.cls-16{fill:#393f42}.cls-17{fill:#ec996f}</style></defs><g id="Layer_2" data-name="Layer 2"><g id="Layer_1-2" data-name="Layer 1"><path class="cls-1" d="M41.1 69h103.6v69.4H41.1z"/><path class="cls-2" d="M144.7 138.4v-19l-.1-50.5H41.1l.2-.2v69.4l-.2-.2h103.1c.3.3.5.3.5.3H41V68.7h103.9l-.1 50.6v17.5l-.1 1.6Z"/><path class="cls-2" d="M41.1 75.2c0-.1 23.2-.2 51.8-.2s51.8.1 51.8.2-23.2.2-51.8.2-51.8-.1-51.8-.2Z"/><g class="cls-3"><path class="cls-2" d="M45.2 72.1a.8.8 0 1 1-.8-.8c.4-.1.8.3.8.8Z"/></g><g class="cls-3"><circle class="cls-2" cx="47.2" cy="72.1" r=".8"/></g><g class="cls-3"><path class="cls-2" d="M50.8 72.1a.8.8 0 1 1-.8-.8c.4-.1.8.3.8.8Z"/></g><path class="cls-2" d="M50 82.4h27.6V110H50zM130.5 90.2c0 .1-10.8.2-24.1.2s-24.1-.1-24.1-.2 10.8-.2 24.1-.2 24.1.1 24.1.2ZM130.5 95.4c0 .1-10.8.2-24.1.2s-24.1-.1-24.1-.2 10.8-.2 24.1-.2 24.1.1 24.1.2ZM130.5 100.5c0 .1-10.8.2-24.1.2s-24.1-.1-24.1-.2 10.8-.2 24.1-.2 24.1.1 24.1.2ZM110.8 105.6H83.5l-1.1-.1h28.4ZM51.7 119.4h13v13h-13zM75.3 119.4h13v13h-13zM98.8 119.4h13v13h-13zM122.4 119.4h13v13h-13z"/><path d="M338.4 91.5a12 12 0 0 1-2.2 2.3l.6 2.9-4.5 2-1.8-2.4a11.3 11.3 0 0 1-3.2.1l-1.6 2.5-4.6-1.8.4-2.9a9.7 9.7 0 0 1-2.3-2.2l-2.9.6-2-4.5 2.4-1.8a11.3 11.3 0 0 1-.1-3.2l-2.5-1.6 1.8-4.6 2.9.4A12 12 0 0 1 321 75l-.6-2.9 4.5-2 1.8 2.4a11.3 11.3 0 0 1 3.2-.1l1.6-2.5 4.6 1.8-.4 2.9a9.7 9.7 0 0 1 2.3 2.2l2.9-.6 2 4.5-2.4 1.8a11.3 11.3 0 0 1 .1 3.2l2.5 1.6-1.8 4.6-2.9-.4Zm-5-4.9a5.3 5.3 0 1 0-6.8 3 5.2 5.2 0 0 0 6.8-3Z" style="fill:none"/><path class="cls-2" d="M333.4 86.6a3.5 3.5 0 0 1-.6 1.2 5.9 5.9 0 0 1-2.8 2.1 5.2 5.2 0 0 1-2.5.1 5.6 5.6 0 0 1-2.6-1.2 4 4 0 0 1-1-1.2 5.2 5.2 0 0 1-.7-1.5 5.7 5.7 0 0 1 .2-3.4 5.4 5.4 0 0 1 2.1-2.6l1.5-.7 1.5-.2a4.8 4.8 0 0 1 2.7.8 4.8 4.8 0 0 1 1.7 1.8 5.2 5.2 0 0 1 .7 3.4 2.4 2.4 0 0 1-.2 1.4 3.2 3.2 0 0 0 .2-1.3 5 5 0 0 0-.8-3.3 5.5 5.5 0 0 0-1.7-1.7 5.3 5.3 0 0 0-2.6-.7l-1.5.2a3.5 3.5 0 0 0-1.4.6 5 5 0 0 0-2 2.5 5.8 5.8 0 0 0-.2 3.2 3.5 3.5 0 0 0 .6 1.4 5.2 5.2 0 0 0 1 1.1 6 6 0 0 0 2.4 1.2 4.8 4.8 0 0 0 2.4-.1 5.7 5.7 0 0 0 2.8-1.9 5.5 5.5 0 0 0 .8-1.2Z"/><path class="cls-2" d="M338.4 91.5h.8l2.2.3h-.1l1.7-4.6-2.5-1.6a11.6 11.6 0 0 0-.1-3.2l2.4-1.8-2-4.5h.1l-2.9.6h-.1a12.1 12.1 0 0 0-2.3-2.2h-.1l.4-2.9h.1l-4.6-1.8h.2l-1.6 2.5h-.1a11.6 11.6 0 0 0-3.2.1h-.2l-1.8-2.4h.2l-4.5 2v-.2l.6 2.9a12.1 12.1 0 0 0-2.2 2.3h-1.5l-1.5-.2h.2l-1.8 4.6v-.2l2.5 1.6h.1a11.5 11.5 0 0 0 .1 3.2h-.1l-2.4 1.8v-.2l2 4.5h-.2l2.9-.6h.2a12 12 0 0 0 2.3 2.2h.1l-.4 2.9h-.1l4.6 1.8h-.1l1.7-2.5h.1a11.3 11.3 0 0 0 3.2-.1h.1l1.8 2.4h-.1l4.5-2-.6-2.9a13.2 13.2 0 0 0 1.7-1.7l.4-.5c-.1.2 0 .1 0 .1v.2l-.4.5a13.2 13.2 0 0 1-1.7 1.7l.6 2.9-4.5 2h-.1l-1.8-2.4h.1a11.3 11.3 0 0 1-3.2.1h.1l-1.6 2.5h-.2l-4.8-1.4h-.1l.4-2.9h.1a12 12 0 0 1-2.3-2.2h.1l-2.9.6h-.1l-2-4.5h.1l2.4-1.8h-.1a11.5 11.5 0 0 1-.1-3.2h.1l-2.5-1.6h-.1l1.8-4.6h.1l1.5.2h1.4c-.3.1-.1 0-.1.1a12.1 12.1 0 0 1 2.2-2.3h-.1l-.6-2.9h.1l4.5-2h.2l1.8 2.4h-.1a11.6 11.6 0 0 1 3.2-.1h-.1l1.6-2.5h.2l4.6 1.8h.1l-.4 2.9h-.1a12.1 12.1 0 0 1 2.3 2.2h-.1l2.9-.6h.1l2 4.5h-.1l-2.4 1.8a11.6 11.6 0 0 1 .1 3.2l2.5 1.7h.1l-1.8 4.6-2.2-.3h-.6Z"/><path class="cls-5" d="M364.4 77.6a8.1 8.1 0 0 1-1.8 1.9l.5 2.4-3.7 1.6-1.5-2a11.5 11.5 0 0 1-2.6.1l-1.4 2-3.8-1.5.4-2.4a8.1 8.1 0 0 1-1.9-1.8l-2.4.5-1.6-3.7 2-1.5a11.5 11.5 0 0 1-.1-2.6l-2-1.4 1.5-3.8 2.4.4a8.1 8.1 0 0 1 1.8-1.9l-.5-2.4 3.7-1.6 1.5 2a11.5 11.5 0 0 1 2.6-.1l1.4-2 3.8 1.5-.4 2.4a8.1 8.1 0 0 1 1.9 1.8l2.4-.5 1.6 3.7-2 1.5a11.5 11.5 0 0 1 .1 2.6l2 1.4-1.5 3.8-2.4-.4Zm-4.1-4.1a4.3 4.3 0 1 0-5.6 2.5 4.4 4.4 0 0 0 5.6-2.5ZM348.4 55a16.4 16.4 0 0 1-2.9 3l.7 3.8-5.8 2.6-2.3-3.1a14.8 14.8 0 0 1-4.2.1l-2.1 3.2-5.9-2.3.6-3.8a16.4 16.4 0 0 1-3-2.9l-3.8.7-2.6-5.8 3.1-2.3a14.8 14.8 0 0 1-.1-4.2l-3.2-2.1 2.3-5.9 3.8.6a16.4 16.4 0 0 1 2.9-3l-.7-3.8 5.8-2.6 2.3 3.1a14.8 14.8 0 0 1 4.2-.1l2.1-3.2 5.9 2.3-.6 3.8a16.4 16.4 0 0 1 3 2.9l3.8-.7 2.6 5.8-3.1 2.3a14.8 14.8 0 0 1 .1 4.2l3.2 2.1-2.3 5.9-3.8-.6Zm-6.4-6.5a6.8 6.8 0 1 0-8.8 3.9 6.8 6.8 0 0 0 8.8-3.9Z"/><path class="cls-2" d="m290 23.4.4-.5 1.3-1.3 4.2-4.1v.2l-4.3-4-1.3-1.2-.4-.5.5.4 1.3 1.2 4.3 3.9-4.3 4-1.3 1.2c-.2.6-.4.8-.4.7ZM277.1 12.1l-.4.5-1.3 1.3-4.2 4.1v-.2l4.3 4 1.3 1.2.4.5-.5-.4-1.3-1.2-4.3-3.9 4.3-4 1.3-1.2c.2-.6.4-.8.4-.7ZM280.4 26.1l3-8.5c1.7-4.7 3.2-8.4 3.3-8.4l-3 8.5a84.2 84.2 0 0 1-3.3 8.4Z"/><path class="cls-2" d="M304.7 34.3V25L304.6.2h-41.8v34.2h-.3V.1h42.2l-.1 24.9v8.7a2.8 2.8 0 0 1 .1.6Z"/><path class="cls-2" d="m305 5.1-21.2.1H305ZM266.1 2.6a.6.6 0 0 1-1.2 0 .6.6 0 0 1 1.2 0Z"/><circle class="cls-2" cx="267.6" cy="2.6" r=".6"/><path class="cls-2" d="M270.2 2.6a.6.6 0 0 1-1.2 0 .6.6 0 0 1 .6-.6q.6.2.6.6Z"/><path class="cls-1" d="M126.4 16.6h97.1V56h-97.1z"/><path class="cls-2" d="M223.5 56V45.4l-.1-28.8h-97l.2-.2v39.5h-.4V16.4h97.4l-.1 28.9V56Z"/><path class="cls-2" d="M126.5 21.9c0-.1 21.7-.2 48.5-.2s48.5.1 48.5.2-21.7.2-48.5.2-48.5-.1-48.5-.2Z"/><g class="cls-3"><path class="cls-6" d="M130.5 19.5a.7.7 0 1 1-.7-.7.7.7 0 0 1 .7.7Z"/></g><g class="cls-3"><path class="cls-6" d="M133 19.5a.7.7 0 1 1-.7-.7.8.8 0 0 1 .7.7Z"/></g><g class="cls-3"><circle class="cls-6" cx="134.6" cy="19.5" r=".7"/></g><path class="cls-2" d="M134.6 28.3h23.5v23.5h-23.5zM216.8 34.6c0 .1-12.1.2-27 .2s-27-.1-27-.2 12.1-.2 27-.2 27 .1 27 .2ZM216.8 39.4c0 .1-12.1.2-27 .2s-27-.1-27-.2 12.1-.2 27-.2 27 .1 27 .2ZM197.6 44.1Z"/><path class="cls-7" d="M375.4 340.9c0 .1-82.6.2-184.4.2S6.6 341 6.6 340.9s82.5-.2 184.4-.2 184.4.1 184.4.2Z"/><path class="cls-2" d="M228.3 84.7h115.9v94.4H228.3z"/><path class="cls-6" d="M220.1 90.7H336v94.4H220.1z"/><path class="cls-1" d="M208.7 97.3h119v97h-119z"/><path class="cls-7" d="M327.7 194.3v-26.6l-.1-70.4.2.2h-119l.2-.2v97l-.2-.2h-.2v-97H328v.2l-.1 70.5v24.7a12.3 12.3 0 0 0-.2 1.8Z"/><path class="cls-8" d="m223.2 111.3-1.3.5 1.3.5v.5l-1.8-.7v-.5l1.8-.7ZM226.2 110.4v2.7h-.6V112h-1.2v1.1h-.6v-2.7h.6v1.1h1.2v-1.1ZM227.4 110.9h-.9v-.5h2.3v.5h-.9v2.2h-.6v-2.2ZM231.7 113.1v-1.6l-.8 1.3h-.3l-.8-1.3v1.6h-.6v-2.7h.5l1 1.7 1-1.7h.5v2.7ZM232.9 110.4h.6v2.2h1.3v.5h-2v-2.7ZM236.9 111.5v.5l-1.8.7v-.5l1.3-.5-1.3-.5v-.4Z"/><path class="cls-9" d="m222.1 184.8-1.3.5 1.3.5v.5l-1.8-.7v-.5l1.8-.7ZM223.5 183.4h.5l-1.3 3.6h-.5ZM226.6 184v2.7h-.6v-1.1h-1.2v1.1h-.6V184h.6v1.1h1.2V184ZM227.8 184.5h-.9v-.5h2.3v.5h-.9v2.2h-.6v-2.2ZM232.1 186.6V185l-.8 1.3h-.3l-.8-1.3v1.6h-.6v-2.7h.5l1 1.7 1-1.7h.5v2.7ZM233.3 184h.6v2.2h1.3v.5h-2V184ZM237.4 185.1v.5l-1.8.7v-.5l1.3-.5-1.3-.5v-.5Z"/><path class="cls-10" d="m231.6 118.7-1.4.5 1.4.5v.3l-1.7-.7v-.3l1.7-.7ZM234.6 117.8v2.7h-.4v-1.2h-1.5v1.2h-.4v-2.7h.4v1.2h1.5v-1.2ZM237.4 120.2v.3h-1.9v-2.7h1.9v.3h-1.5v.8h1.3v.3h-1.3v.9h1.5ZM239.7 119.9h-1.4l-.3.7h-.4l1.2-2.7h.4l1.2 2.7h-.4Zm-.1-.4-.6-1.3-.6 1.3ZM240.8 117.8h1.1a1.3 1.3 0 1 1 0 2.6h-1.1Zm1.1 2.4a1 1 0 1 0 0-2h-.7v2ZM245.5 119v.3l-1.7.7v-.3l1.4-.5-1.4-.5v-.3ZM231.6 127.9l-1.4.5 1.4.5v.3l-1.7-.7v-.3l1.7-.7ZM232.8 127.4h-.9v-.3h2.2v.3h-.9v2.4h-.4v-2.4ZM234.5 127h.4v2.7h-.4ZM236.3 127.4h-.9v-.3h2.2v.3h-.9v2.4h-.4v-2.4ZM238 127h.4v2.4h1.5v.3h-1.8V127ZM242.2 129.4v.3h-1.9V127h1.9v.3h-1.5v.8h1.3v.3h-1.3v.9h1.5ZM244.4 128.2v.3l-1.7.7v-.3l1.4-.5-1.4-.5v-.3ZM246.1 127h.4v2.4h1.5v.3h-1.8V127ZM248.1 128.7a1 1 0 0 1 1.1-1 1 1 0 0 1 1.1 1 1.1 1.1 0 0 1-2.2 0Zm1.7 0a.7.7 0 1 0-.7.7.6.6 0 0 0 .7-.7ZM251.8 127.7v.4h-.1c-.4 0-.6.2-.6.7v1h-.4v-2h.4v.3a.7.7 0 0 1 .7-.4ZM254.1 128.8h-1.7c0 .4.3.6.7.6l.6-.2.2.2a1.1 1.1 0 0 1-.8.3 1 1 0 0 1-1.1-1 1 1 0 0 1 2 0Zm-1.7-.2h1.3a.7.7 0 0 0-.7-.6q-.4 0-.6.6ZM258 128.6v1.2h-.4v-1.1c0-.4-.2-.6-.5-.6s-.6.2-.6.7v1h-.4v-1.1c0-.4-.2-.6-.5-.6s-.6.2-.6.7v1h-.4v-2h.4v.3a.8.8 0 0 1 .7-.3.7.7 0 0 1 .7.4 1 1 0 0 1 .8-.4c.4-.1.8.2.8.8ZM259.6 127.1a.2.2 0 0 1 .2-.2l.2.2a.2.2 0 1 1-.4 0Zm.1.6h.4v2h-.4ZM262.9 128.7a.9.9 0 0 1-1 1 .9.9 0 0 1-.7-.3v1.1h-.5v-2.8h.4v.3a.9.9 0 0 1 .7-.3 1 1 0 0 1 1.1 1Zm-.4 0a.7.7 0 1 0-.7.7.7.7 0 0 0 .7-.7ZM263.1 129.5l.2-.3.7.2c.3 0 .5-.1.5-.3s-1.3-.1-1.3-.9.3-.6.8-.6l.7.2-.2.3-.6-.2c-.3 0-.5.1-.5.3s1.3.1 1.3.9-.3.6-.9.6ZM267.2 127.7v2h-.3v-.3a.9.9 0 0 1-.7.3.8.8 0 0 1-.9-.9v-1.2h.4v1.1c0 .4.2.6.5.6s.6-.2.6-.7v-1.1h.4ZM271.3 128.6v1.2h-.4v-1.1c0-.4-.2-.6-.5-.6s-.6.2-.6.7v1h-.4v-1.1c0-.4-.2-.6-.5-.6s-.6.2-.6.7v1h-.4v-2h.4v.3a.8.8 0 0 1 .7-.3.7.7 0 0 1 .7.4 1 1 0 0 1 .8-.4c.4-.1.8.2.8.8ZM274.6 127.9l-1.4.5 1.4.5v.3l-1.7-.7v-.3l1.7-.7ZM276 126.5h.3l-1.3 3.6h-.3ZM277.2 127.4h-.9v-.3h2.2v.3h-.9v2.4h-.4v-2.4ZM279 127h.4v2.7h-.4ZM280.7 127.4h-.9v-.3h2.2v.3h-.9v2.4h-.4ZM282.4 127h.4v2.4h1.5v.3h-1.8V127ZM286.6 129.4v.3h-1.9V127h1.9v.3h-1.5v.8h1.3v.3h-1.3v.9h1.5ZM288.8 128.2v.3l-1.7.7v-.3l1.4-.5-1.4-.5v-.3ZM231.6 137.1l-1.4.5 1.4.5v.3l-1.7-.7v-.3l1.7-.7ZM233.1 135.7h.3l-1.3 3.6h-.3ZM236 136.2v2.7h-.4v-1.2h-1.5v1.2h-.4v-2.7h.4v1.2h1.5v-1.2ZM238.7 138.6v.3h-1.9v-2.7h1.9v.3h-1.5v.8h1.3v.3h-1.3v.9h1.5ZM241 138.3h-1.4l-.3.7h-.4l1.2-2.7h.4l1.2 2.7h-.4Zm-.1-.4-.6-1.3-.6 1.3ZM242.1 136.2h1.1a1.3 1.3 0 1 1 0 2.6h-1.1Zm1.1 2.4a1 1 0 1 0 0-2h-.7v2ZM246.9 137.4v.3l-1.7.7v-.3l1.4-.5-1.4-.5v-.3ZM224.5 145l-1.4.5 1.4.5v.3l-1.7-.7v-.3l1.7-.7ZM227.5 146.2c0 .5-.3.7-1 .7h-1.3v-2.7h1.2c.6 0 1 .3 1 .7a.5.5 0 0 1-.4.6.7.7 0 0 1 .5.7Zm-1.9-1.7v.9h.8c.4 0 .6-.1.6-.4s-.2-.4-.6-.4h-.8Zm1.5 1.7c0-.3-.2-.4-.7-.4h-.9v.9h.9c.5-.1.7-.2.7-.5ZM227.9 145.6a1.4 1.4 0 1 1 1.4 1.4 1.4 1.4 0 0 1-1.4-1.4Zm2.4 0a1 1 0 1 0-1 1 .9.9 0 0 0 1-1ZM231.3 144.2h1.1a1.3 1.3 0 1 1 0 2.6h-1.1Zm1.1 2.4a1 1 0 1 0 0-2h-.7v2ZM235.4 146v.9h-.4v-.9l-1.1-1.7h.4l.9 1.4.9-1.4h.4ZM238.4 145.4v.3l-1.7.7v-.3l1.4-.5-1.4-.5v-.3ZM224.5 154.2l-1.4.5 1.4.5v.3l-1.7-.7v-.3l1.7-.7ZM227.5 153.4v2.7h-.4v-1.2h-1.5v1.2h-.4v-2.7h.4v1.2h1.5v-1.2ZM228.9 153.4v2.7h-.4v-2.3h-.6v-.3h1ZM231.3 154.6v.3l-1.7.7v-.3l1.4-.5-1.4-.5v-.3ZM233 153.4h.3v2.4h1.5v.2H233ZM235 155.1a1 1 0 1 1 1 1 .9.9 0 0 1-1-1Zm1.7 0a.7.7 0 0 0-.7-.8.8.8 0 0 0-.8.8.7.7 0 0 0 .8.8.7.7 0 0 0 .7-.8ZM238.6 154.1v.3h-.1a.7.7 0 0 0-.7.7v1h-.3v-2h.3v.4a.8.8 0 0 1 .8-.4ZM240.8 155.2h-1.7a.8.8 0 0 0 .8.7.7.7 0 0 0 .6-.3l.2.2a1.1 1.1 0 0 1-.8.3 1 1 0 0 1-1.1-1 .9.9 0 0 1 1-1 1 1 0 0 1 1 1.1Zm-1.7-.2h1.4a.7.7 0 0 0-.7-.7c-.4 0-.6.3-.7.7ZM244.7 154.9v1.2h-.3V155a.5.5 0 0 0-.6-.6.7.7 0 0 0-.7.7v1.1h-.3v-1.1a.5.5 0 0 0-.6-.6.7.7 0 0 0-.7.7v1.1h-.3v-2h.3v.4a.8.8 0 0 1 .7-.4.7.7 0 0 1 .7.4c.1-.3.4-.4.8-.4s1 .1 1 .6ZM246.4 153.5l.2-.2.2.2-.2.2Zm0 .6h.3v2h-.3ZM249.5 155.1a.9.9 0 0 1-1 1 .9.9 0 0 1-.8-.4v1.1h-.3V154h.3v.4a.8.8 0 0 1 .8-.4 1.1 1.1 0 0 1 1 1.1Zm-.3 0a.7.7 0 0 0-.8-.8.8.8 0 0 0-.8.8.8.8 0 1 0 1.6 0ZM249.8 155.9v-.2l.7.2c.4 0 .5-.1.5-.3s-1.3-.1-1.3-.9.3-.6.8-.6l.7.2v.2l-.6-.2c-.4 0-.5.1-.5.3s1.3.1 1.3.9-.3.6-.8.6ZM253.8 154.1v2h-.3v-.4a.9.9 0 0 1-1.6-.5V154h.3v1.1a.5.5 0 0 0 .6.6.7.7 0 0 0 .7-.7v-1.1h.3ZM257.9 154.9v1.2h-.3V155a.5.5 0 0 0-.6-.6.7.7 0 0 0-.7.7v1.1h-.3v-1.1a.5.5 0 0 0-.6-.6.7.7 0 0 0-.7.7v1.1h-.3v-2h.3v.4a.8.8 0 0 1 .7-.4.7.7 0 0 1 .7.4c.1-.3.4-.4.8-.4s1 .1 1 .6ZM261.4 153.3v2.8h-.3v-.4a.8.8 0 0 1-.8.4 1 1 0 0 1 0-2 .9.9 0 0 1 .8.4v-1.2Zm-.2 1.8a.7.7 0 0 0-.7-.8.8.8 0 0 0-.8.8.7.7 0 0 0 .8.8.7.7 0 0 0 .7-.8ZM262 155.1a1 1 0 1 1 1 1 .9.9 0 0 1-1-1Zm1.8 0a.7.7 0 0 0-.7-.8.8.8 0 0 0-.8.8.7.7 0 0 0 .8.8.7.7 0 0 0 .7-.8ZM264.6 153.3h.3v2.8h-.3ZM265.4 155.1a1 1 0 1 1 1 1 1 1 0 0 1-1-1Zm1.8 0a.7.7 0 0 0-.7-.8.8.8 0 0 0-.8.8.7.7 0 0 0 .8.8.7.7 0 0 0 .7-.8ZM269.1 154.1v.3h-.1a.7.7 0 0 0-.7.7v1h-.3v-2h.3v.4c.1-.3.4-.4.8-.4ZM270.3 155.9v-.2l.7.2c.4 0 .5-.1.5-.3s-1.3-.1-1.3-.9.3-.6.8-.6l.7.2v.2l-.6-.2c-.4 0-.5.1-.5.3s1.3.1 1.3.9-.3.6-.8.6ZM272.4 153.5l.2-.2.2.2-.2.2Zm.1.6h.3v2h-.3ZM274.6 156h-.4a.5.5 0 0 1-.6-.6v-1.2h-.4v-.2h.4v-.4h.3v.4h.6v.2h-.6v1.2c0 .2.1.4.3.4h.3ZM277.6 154.9v1.3h-.3v-.4a.8.8 0 0 1-.7.3c-.5 0-.7-.2-.7-.6s.2-.6.8-.6h.6c0-.3-.2-.5-.6-.5l-.7.2v-.2a1.1 1.1 0 0 1 .8-.3c.5 0 .8.2.8.8Zm-.3.6v-.3h-.6c-.4 0-.5.2-.5.4a.5.5 0 0 0 .5.4c.3-.1.5-.2.6-.5ZM281.6 154.9v1.2h-.3V155a.5.5 0 0 0-.6-.6.7.7 0 0 0-.7.7v1.1h-.3v-1.1a.5.5 0 0 0-.6-.6.7.7 0 0 0-.7.7v1.1h-.3v-2h.3v.4a.8.8 0 0 1 .7-.4.7.7 0 0 1 .7.4c.1-.3.4-.4.8-.4s1 .1 1 .6ZM284.1 155.2h-1.7a.8.8 0 0 0 .8.7.7.7 0 0 0 .6-.3l.2.2a1.1 1.1 0 0 1-.8.3 1 1 0 0 1-1.1-1 .9.9 0 0 1 1-1 1 1 0 0 1 1 1.1Zm-1.6-.2h1.4a.7.7 0 1 0-1.4 0ZM285.8 156h-.4a.5.5 0 0 1-.6-.6v-1.2h-.4v-.2h.4v-.4h.3v.4h.6v.2h-.6v1.2c0 .2.1.4.3.4h.3ZM286.5 155.9v.2l-.2.5h-.3v-.6l-.1-.2a.2.2 0 0 1 .2-.2ZM287.9 155.1a.9.9 0 0 1 1-1 .9.9 0 0 1 .8.4h-.2a.7.7 0 0 0-.6-.3.8.8 0 0 0-.8.8.7.7 0 0 0 .8.8.9.9 0 0 0 .6-.3h.2a.8.8 0 0 1-.8.4.9.9 0 0 1-1-.8ZM290 155.1a1 1 0 1 1 1 1 1 1 0 0 1-1-1Zm1.8 0a.7.7 0 0 0-.7-.8.8.8 0 0 0-.8.8.7.7 0 0 0 .8.8.7.7 0 0 0 .7-.8ZM294.5 154.9v1.2h-.3V155a.5.5 0 0 0-.6-.6.7.7 0 0 0-.7.7v1.1h-.3v-2h.3v.4a.9.9 0 0 1 .8-.4c.5-.1.8.2.8.7ZM295 155.9v-.2l.7.2c.4 0 .5-.1.5-.3s-1.3-.1-1.3-.9.3-.6.8-.6l.7.2v.2l-.6-.2c-.4 0-.5.1-.5.3s1.3.1 1.3.9-.3.6-.8.6ZM298.9 155.2h-1.7a.8.8 0 0 0 .8.7.7.7 0 0 0 .6-.3l.2.2a1.1 1.1 0 0 1-.8.3 1 1 0 0 1-1.1-1 .9.9 0 0 1 1-1 1 1 0 0 1 1 1.1Zm-1.7-.2h1.4a.7.7 0 0 0-1.4 0ZM299.2 155.1a.9.9 0 0 1 1-1 .9.9 0 0 1 .8.4h-.2a.7.7 0 0 0-.6-.3.8.8 0 0 0-.8.8.7.7 0 0 0 .8.8.9.9 0 0 0 .6-.3h.2a.8.8 0 0 1-.8.4 1 1 0 0 1-1-.8ZM302.7 156h-.4a.5.5 0 0 1-.6-.6v-1.2h-.4v-.2h.4v-.4h.3v.4h.6v.2h-.6v1.2c0 .2.1.4.3.4h.3ZM304.9 155.2h-1.7a.8.8 0 0 0 .8.7.7.7 0 0 0 .6-.3l.2.2a1.1 1.1 0 0 1-.8.3 1 1 0 0 1-1.1-1 .9.9 0 0 1 1-1 1 1 0 0 1 1 1.1Zm-1.7-.2h1.4a.7.7 0 0 0-1.4 0ZM306.5 156h-.4a.5.5 0 0 1-.6-.6v-1.2h-.4v-.2h.4v-.4h.3v.4h.6v.2h-.7v1.2c0 .2.1.4.3.4h.3ZM308.8 154.1v2h-.3v-.4a.9.9 0 0 1-1.6-.5V154h.3v1.1a.5.5 0 0 0 .6.6.7.7 0 0 0 .7-.7v-1.1h.3ZM311.3 155.2h-1.7a.8.8 0 0 0 .8.7.7.7 0 0 0 .6-.3l.2.2a1.1 1.1 0 0 1-.8.3 1 1 0 0 1-1.1-1 .9.9 0 0 1 1-1 1 1 0 0 1 1 1.1Zm-1.7-.2h1.4a.7.7 0 1 0-1.4 0ZM312.9 154.1v.3h-.1a.7.7 0 0 0-.7.7v1h-.3v-2h.3v.4c.1-.3.4-.4.8-.4ZM224.4 159.5v1.3h-.3v-.3a.8.8 0 0 1-.7.3c-.5 0-.7-.2-.7-.6s.2-.6.8-.6h.6c0-.3-.2-.5-.6-.5l-.7.2v-.3a1.1 1.1 0 0 1 .8-.3c.5 0 .8.2.8.8Zm-.2.6v-.3h-.6c-.4 0-.5.2-.5.4a.5.5 0 0 0 .5.4c.2-.1.5-.2.6-.5ZM227 157.9v2.8h-.3v-.4a.8.8 0 0 1-.8.4 1 1 0 0 1 0-2 .9.9 0 0 1 .8.4v-1.2Zm-.2 1.8a.7.7 0 0 0-.7-.8.8.8 0 0 0-.8.8.7.7 0 0 0 .8.8.8.8 0 0 0 .7-.8ZM227.7 158.1l.2-.2.2.2a.2.2 0 0 1-.2.2Zm.1.6h.3v2h-.3ZM230.9 159.7a.9.9 0 0 1-1 1 .9.9 0 0 1-.8-.4v1.1h-.3v-2.8h.3v.4a.8.8 0 0 1 .8-.4 1.2 1.2 0 0 1 1 1.1Zm-.3 0a.7.7 0 0 0-.8-.8.8.8 0 0 0-.8.8.8.8 0 1 0 1.6 0ZM231.4 158.1l.2-.2.2.2-.2.2c-.2 0-.2-.1-.2-.2Zm0 .6h.3v2h-.3ZM232.2 160.5v-.2l.7.2c.4 0 .5-.1.5-.3s-1.3-.1-1.3-.9.3-.6.8-.6l.7.2v.2l-.6-.2c-.4 0-.5.1-.5.3s1.3.1 1.3.9-.3.6-.8.6ZM234.1 159.7a.9.9 0 0 1 1-1 .9.9 0 0 1 .8.4h-.2a.7.7 0 0 0-.6-.3.8.8 0 0 0-.8.8.7.7 0 0 0 .8.8.9.9 0 0 0 .6-.3h.2a.8.8 0 0 1-.8.4 1 1 0 0 1-1-.8ZM236.4 158.1l.2-.2.2.2-.2.2a.2.2 0 0 1-.2-.2Zm.1.6h.3v2h-.3ZM239.4 159.5v1.2h-.3v-1.1a.5.5 0 0 0-.6-.6.7.7 0 0 0-.7.7v1.1h-.3v-2h.3v.4a.9.9 0 0 1 .8-.4.7.7 0 0 1 .8.7ZM242 158.7v1.8c0 .7-.3 1-1 1a1.2 1.2 0 0 1-.9-.3v-.2a1.1 1.1 0 0 0 .8.3c.5 0 .7-.2.7-.7v-.3a.9.9 0 0 1-.8.4 1 1 0 0 1 0-2 .9.9 0 0 1 .8.4v-.4Zm-.3 1a.7.7 0 0 0-.8-.7.8.8 0 0 0-.8.7.8.8 0 0 0 1.6 0ZM245.5 159.8h-1.7a.8.8 0 0 0 .8.7.7.7 0 0 0 .6-.3l.2.2a1.1 1.1 0 0 1-.8.3 1 1 0 0 1-1.1-1 .9.9 0 0 1 1-1 1 1 0 0 1 1 1.1Zm-1.7-.2h1.4a.7.7 0 0 0-1.4 0ZM246.1 157.9h.3v2.8h-.3ZM247 158.1l.2-.2.2.2a.2.2 0 1 1-.4 0Zm.1.6h.3v2h-.3ZM249.2 160.6h-.4a.5.5 0 0 1-.6-.6v-1.2h-.4v-.2h.4v-.4h.3v.4h.6v.2h-.6v1.2c0 .2.1.4.3.4h.3ZM250 160.5v.2l-.2.5h-.2v-.6l-.1-.2a.2.2 0 0 1 .2-.2ZM251.3 160.5v-.2l.7.2c.4 0 .5-.1.5-.3s-1.3-.1-1.3-.9.3-.6.8-.6l.7.2v.2l-.6-.2c-.4 0-.5.1-.5.3s1.3.1 1.3.9-.3.6-.8.6ZM255.2 159.8h-1.7a.8.8 0 0 0 .8.7.7.7 0 0 0 .6-.3l.2.2a1.1 1.1 0 0 1-.8.3 1 1 0 0 1-1.1-1 .9.9 0 0 1 1-1 1 1 0 0 1 1 1.1Zm-1.7-.2h1.4a.7.7 0 1 0-1.4 0ZM257.6 157.9v2.8h-.3v-.4a.8.8 0 0 1-.8.4 1 1 0 0 1 0-2 .9.9 0 0 1 .8.4v-1.2Zm-.3 1.8a.7.7 0 0 0-.7-.8.8.8 0 0 0-.8.8.7.7 0 0 0 .8.8.7.7 0 0 0 .7-.8ZM261.2 157.9v2.8h-.3v-.4a.8.8 0 0 1-.8.4 1 1 0 0 1 0-2 .9.9 0 0 1 .8.4v-1.2Zm-.3 1.8a.7.7 0 0 0-.7-.8.8.8 0 0 0-.8.8.7.7 0 0 0 .8.8.7.7 0 0 0 .7-.8ZM261.9 158.1l.2-.2.2.2-.2.2a.2.2 0 0 1-.2-.2Zm0 .6h.3v2h-.3ZM264.5 159.5v1.3h-.3v-.3a.8.8 0 0 1-.7.3c-.5 0-.7-.2-.7-.6s.2-.6.8-.6h.6c0-.3-.2-.5-.6-.5l-.7.2v-.3a1.1 1.1 0 0 1 .8-.3c.5 0 .8.2.8.8Zm-.3.6v-.3h-.6c-.4 0-.5.2-.5.4a.5.5 0 0 0 .5.4c.3-.1.5-.2.6-.5ZM268.6 159.5v1.2h-.3v-1.1a.5.5 0 0 0-.6-.6.7.7 0 0 0-.7.7v1.1h-.3v-1.1a.5.5 0 0 0-.6-.6.7.7 0 0 0-.7.7v1.1h-.3v-2h.3v.4a.8.8 0 0 1 .7-.4.7.7 0 0 1 .7.4c.1-.3.4-.4.8-.4s1 .1 1 .6ZM270.9 158.8l-1.4.5 1.4.5v.3l-1.7-.7v-.3l1.7-.7ZM272.3 157.5h.3l-1.3 3.6h-.3ZM275.2 158v2.7h-.4v-1.2h-1.5v1.2h-.4V158h.4v1.2h1.5V158ZM276.6 158v2.7h-.4v-2.4h-.6v-.3ZM279 159.2v.3l-1.7.7v-.3l1.4-.5-1.4-.5v-.3ZM224.5 168l-1.4.5 1.4.5v.3l-1.7-.7v-.3l1.7-.7ZM227.3 168.2c0 .6-.4.9-1.1.9h-.7v.8h-.4v-2.7h1c.8 0 1.2.4 1.2 1Zm-.3 0c0-.4-.3-.6-.7-.6h-.7v1.2h.7a.7.7 0 0 0 .7-.6ZM229.5 168.4v.3l-1.7.7v-.3l1.4-.5-1.4-.5v-.3ZM232.8 168l-1.4.5 1.4.5v.3l-1.7-.7v-.3l1.7-.7ZM233.4 167.2h.4v2.7h-.4ZM237.1 169.9v-2l-1 1.6h-.2l-1-1.6v1.9h-.4v-2.7h.3l1.1 1.9 1.1-1.9h.3v2.7h-.2ZM240.1 168.6h.4v1a1.7 1.7 0 0 1-1 .3 1.4 1.4 0 0 1 0-2.8 1.2 1.2 0 0 1 1 .4l-.2.2a1.1 1.1 0 0 0-.8-.3 1 1 0 0 0-1.1 1 1 1 0 0 0 1.1 1 .7.7 0 0 0 .6-.2ZM242 169.6v-.3a1.2 1.2 0 0 0 .9.3c.5 0 .7-.2.7-.4s-1.6-.2-1.6-1.2.3-.8 1-.8l.9.2v.3l-.7-.2c-.5 0-.7.2-.7.4s1.6.2 1.6 1.2-.3.8-1 .8a1.6 1.6 0 0 1-1.1-.3ZM246.4 169.9l-.6-.8h-.9v.8h-.2v-2.7h1c.7 0 1.1.4 1.1.9a.8.8 0 0 1-.6.8l.6.9h-.4Zm0-1.7c0-.4-.3-.6-.7-.6h-.7v1.2h.7c.5 0 .7-.3.7-.6ZM247.2 168.6a1.4 1.4 0 0 1 1.4-1.4 1.2 1.2 0 0 1 1 .4l-.2.2a1.1 1.1 0 0 0-.8-.3 1 1 0 0 0-1.1 1 1 1 0 0 0 1.1 1 1.3 1.3 0 0 0 .8-.3l.2.2a1.4 1.4 0 0 1-2.4-.8ZM250.1 168h1.7v.3h-1.7Zm0 .9h1.7v.3h-1.7ZM253.3 167.2h.3v1h-.3Zm.7 0h.3v1h-.3ZM255 167.2h.4v2.4h1.5v.3h-1.8v-2.7ZM257 168.9a1 1 0 0 1 1.1-1 1 1 0 0 1 1.1 1 1.1 1.1 0 0 1-2.2 0Zm1.7 0a.7.7 0 1 0-.7.7.7.7 0 0 0 .7-.7ZM260.7 167.9v.4h-.1c-.4 0-.6.2-.6.7v1h-.4v-2h.4v.3c.1-.3.3-.4.7-.4ZM263 169h-1.7c0 .4.3.6.7.6l.6-.2.2.2a1.1 1.1 0 0 1-.8.3 1 1 0 0 1-1.1-1 1 1 0 1 1 2 0Zm-1.7-.2h1.3a.7.7 0 0 0-.7-.6.6.6 0 0 0-.6.6ZM266.9 168.7v1.2h-.4v-1.1c0-.4-.2-.6-.5-.6s-.6.2-.6.7v1h-.4v-1.1c0-.4-.2-.6-.5-.6s-.6.2-.6.7v1h-.4v-2h.4v.3a.8.8 0 0 1 .7-.3.7.7 0 0 1 .7.4 1 1 0 0 1 .8-.4.7.7 0 0 1 .8.8ZM268.5 167.3a.2.2 0 1 1 .2.2Zm.1.6h.4v2h-.4ZM271.7 168.9a.9.9 0 0 1-1 1 .9.9 0 0 1-.7-.3v1.1h-.4v-2.8h.4v.3a.9.9 0 0 1 .7-.3.9.9 0 0 1 1 1Zm-.3 0a.7.7 0 1 0-.7.7.7.7 0 0 0 .7-.7ZM272 169.7l.2-.3.7.2c.3 0 .5-.1.5-.3s-1.3-.1-1.3-.9.3-.6.8-.6l.7.2-.2.3-.6-.2c-.3 0-.5.1-.5.3s1.3.1 1.3.9-.3.6-.9.6ZM276.1 167.9v2h-.4v-.3a.8.8 0 0 1-.7.3.8.8 0 0 1-.9-.9v-1.2h.4v1.1c0 .4.2.6.5.6s.6-.2.6-.7v-1.1h.5ZM280.1 168.7v1.2h-.4v-1.1c0-.4-.2-.6-.5-.6s-.6.2-.6.7v1h-.4v-1.1c0-.4-.2-.6-.5-.6s-.6.2-.6.7v1h-.4v-2h.4v.3a.8.8 0 0 1 .7-.3.7.7 0 0 1 .7.4 1 1 0 0 1 .8-.4c.5 0 .8.2.8.8ZM280.7 167.2h.3v1h-.3Zm.7 0h.3v1h-.3ZM283.9 168.4v.3l-1.7.7v-.3l1.4-.5-1.4-.5v-.3ZM286.2 168l-1.4.5 1.4.5v.3l-1.7-.7v-.3l1.7-.7ZM287.6 166.7h.3l-1.3 3.6h-.3ZM290.3 168.2c0 .6-.4.9-1.1.9h-.7v.8h-.4v-2.7h1c.8 0 1.2.4 1.2 1Zm-.3 0c0-.4-.3-.6-.7-.6h-.7v1.2h.7a.7.7 0 0 0 .7-.6ZM292.5 168.4v.3l-1.7.7v-.3l1.4-.5-1.4-.5v-.3ZM224.5 177.2l-1.4.5 1.4.5v.3l-1.7-.7v-.3l1.7-.7ZM225.9 175.9h.3l-1.3 3.6h-.2ZM228.8 178.4c0 .5-.3.7-1 .7h-1.3v-2.7h1.2c.6 0 1 .3 1 .7a.5.5 0 0 1-.4.6.7.7 0 0 1 .5.7Zm-1.9-1.7v.9h.8c.4 0 .6-.1.6-.4s-.2-.4-.6-.4h-.8Zm1.5 1.7c0-.3-.2-.4-.7-.4h-.9v.9h.9c.5-.1.7-.2.7-.5ZM229.2 177.8a1.4 1.4 0 1 1 1.4 1.4 1.4 1.4 0 0 1-1.4-1.4Zm2.5 0a1 1 0 1 0-1 1 1 1 0 0 0 1-1ZM232.6 176.4h1.1a1.3 1.3 0 1 1 0 2.6h-1.1Zm1.1 2.4a1 1 0 1 0 0-2h-.7v2ZM236.7 178.2v.9h-.4v-.9l-1.1-1.7h.4l.9 1.4.9-1.4h.4ZM239.7 177.6v.3l-1.7.7v-.3l1.4-.5-1.4-.5v-.3Z"/><path class="cls-7" d="M327.7 105.4c0 .1-26.6.2-59.3.2s-59.3-.1-59.3-.2 26.5-.2 59.3-.2 59.3 0 59.3.2ZM212.7 101.1a.8.8 0 1 1-.8-.8c.4.1.8.4.8.8Z"/><circle class="cls-7" cx="214.8" cy="101.1" r=".8"/><path class="cls-7" d="M218.5 101.1a.8.8 0 1 1-.8-.8c.5.1.8.4.8.8Z"/><path class="cls-2" d="M216.7 195.1c-.1 0-.2-20.1-.2-45s.1-45 .2-45 .2 20.1.2 45-.1 45-.2 45Z"/><path class="cls-8" d="M50.6 18h49v34.9h-49z"/><path class="cls-1" d="M100 23.2c0 .1-11.1.2-24.7.2s-24.7-.1-24.7-.2 11.1-.2 24.7-.2 24.7.1 24.7.2ZM54.6 20.6a.7.7 0 1 1-.7-.6c.4.1.7.3.7.6ZM57 20.6a.7.7 0 1 1-.7-.6c.4.1.7.3.7.6Z"/><ellipse class="cls-1" cx="58.7" cy="20.6" rx=".7" ry=".6"/><path class="cls-1" d="M68.7 37.1c0 2.1-1.5 3.4-4 3.4h-2.6v3.1h-1v-9.9h3.7c2.4 0 3.9 1.3 3.9 3.4Zm-1 0c0-1.6-1-2.5-3-2.5h-2.6v4.9h2.6c1.9.1 3-.8 3-2.4ZM79.2 33.7v9.9h-1v-4.5H72v4.5h-1v-9.9h1v4.4h6.2v-4.4ZM90.1 37.1c0 2.1-1.5 3.4-4 3.4h-2.6v3.1h-1v-9.9h3.7c2.4 0 3.9 1.3 3.9 3.4Zm-1 0c0-1.6-1-2.5-3-2.5h-2.6v4.9h2.6c1.9.1 3-.8 3-2.4Z"/><path class="cls-8" d="M317.1 151.6h44.3v31.6h-44.3z"/><path class="cls-1" d="M332.1 166.3v6.3h-1.5V170h-2.8v2.6h-1.5v-6.3h1.5v2.5h2.8v-2.5ZM334.8 167.5h-2v-1.2h5.5v1.2h-2v5.1h-1.5ZM339.1 166.3h1.5v5.1h3.1v1.2h-4.6ZM350.2 172.6v-3.8l-1.8 3.1h-.7l-1.8-3v3.7h-1.4v-6.3h1.2l2.3 3.9 2.3-3.9h1.2v6.3ZM361.8 156.3h-44.6l22.3-.1 22.3.1ZM320.7 154a.6.6 0 1 1-.6-.5c.4 0 .6.2.6.5ZM322.9 154a.6.6 0 1 1-.6-.5.6.6 0 0 1 .6.5ZM325.1 154a.6.6 0 1 1-.6-.5.6.6 0 0 1 .6.5Z"/><path class="cls-8" d="M27 151.2h32.7v23.3H27z"/><path class="cls-1" d="M60 154.6ZM29.7 152.9a.4.4 0 1 1-.4-.4c.2.1.4.2.4.4ZM31.3 152.9a.4.4 0 1 1-.4-.4c.2.1.4.2.4.4ZM32.9 152.9a.4.4 0 1 1-.4-.4.4.4 0 0 1 .4.4Z"/><path class="cls-8" d="M221.7 61.4a6.1 6.1 0 0 1 6.3-6.2 6.2 6.2 0 0 1 4.4 1.7l-.6.6A5.2 5.2 0 0 0 228 56a5.4 5.4 0 1 0 0 10.8 5.1 5.1 0 0 0 3.8-1.5l.6.6a6.4 6.4 0 0 1-10.7-4.5ZM234.1 66l.4-.7a5.6 5.6 0 0 0 4 1.5c2.4 0 3.5-1.1 3.5-2.4 0-3.7-7.6-1.5-7.6-6 0-1.7 1.3-3.3 4.3-3.3a6.7 6.7 0 0 1 3.7 1.1l-.3.7a6.1 6.1 0 0 0-3.4-1c-2.4 0-3.4 1.1-3.4 2.4 0 3.7 7.6 1.5 7.6 5.9 0 1.7-1.4 3.2-4.4 3.2a5 5 0 0 1-4.4-1.4ZM244.7 66l.4-.7a5.6 5.6 0 0 0 4 1.5c2.4 0 3.5-1.1 3.5-2.4 0-3.7-7.6-1.5-7.6-6 0-1.7 1.3-3.3 4.3-3.3a6.7 6.7 0 0 1 3.7 1.1l-.3.7a6.1 6.1 0 0 0-3.4-1c-2.4 0-3.4 1.1-3.4 2.4 0 3.7 7.6 1.5 7.6 5.9 0 1.7-1.4 3.2-4.4 3.2a5.1 5.1 0 0 1-4.4-1.4Z"/><path class="cls-8" d="M264 77.4v-9.6l-.1-25.6.2.2h-54.5l.2-.2v35.2l-.2-.2h54.2a.1.1 0 0 1 .2 0h-54.7V42h54.9v.2l-.1 25.7v8.8a4.2 4.2 0 0 0-.1.7Z"/><path class="cls-8" d="M264 47.4c0 .1-12.2.2-27.3.2s-27.3-.1-27.3-.2 12.2-.2 27.3-.2 27.3.1 27.3.2ZM213.5 44.8a.7.7 0 1 1-.7-.6.7.7 0 0 1 .7.6ZM215.9 44.8a.7.7 0 1 1-.7-.6.7.7 0 0 1 .7.6ZM218.4 44.8a.7.7 0 1 1-.7-.6.7.7 0 0 1 .7.6Z"/><path class="cls-11" d="m106.6 197.7 21.6 73a7.7 7.7 0 0 0 7.3 5.5l87.7.2a8 8 0 0 0 8.1-8.5 8.1 8.1 0 0 0-8.1-7.7h-33.5l-26.9-74.8h-47a9.5 9.5 0 0 0-9.2 12.3Z"/><path class="cls-7" d="M180.8 266.1c0 .2-8.9.3-20 .3s-20-.1-20-.3 8.9-.3 20-.3 20 .1 20 .3ZM113 187.6c.2-.1 6.1 17.4 13.3 39s12.9 39.2 12.8 39.2-6.1-17.4-13.3-39-13-39.1-12.8-39.2Z"/><path class="cls-11" d="m177.1 340.9-5.3-.1v-64.7h5.3v64.8z"/><path class="cls-11" d="M149.6 340.6h49.7l-22.5-7.8h-5.4l-21.8 7.8z"/><path class="cls-8" d="m137 168.6 8.2 41.1-1.5 30.8 55.3-9.2-2.2-27V182l13.6 26.3 10.6-20.4-19.3-35a32.1 32.1 0 0 0-12.7-8.2 24.7 24.7 0 0 0-7.9-1.5 31.5 31.5 0 0 1-19.2 0l-3.2.4h-.2a24.6 24.6 0 0 0-21.4 23Z"/><path class="cls-8" d="M158.7 143.5s-22.7.2-25.6 24.2l-.4 17.6 19.6-.2Z"/><path class="cls-12" d="M213 174.4c0 .2-17.9.3-40 .3s-40-.1-40-.3 17.9-.3 40-.3 40 .1 40 .3ZM213 178.2c0 .2-17.9.3-40 .3s-40-.1-40-.3 17.9-.3 40-.3 40 .1 40 .3ZM211.7 171.2c0 .2-17.6.3-39.3.3s-39.3-.1-39.3-.3 17.6-.3 39.3-.3 39.3.2 39.3.3Z"/><path class="cls-7" d="M196.6 208.3c-.2 0-.1-9.7.2-21.7s.6-21.7.8-21.7.1 9.7-.2 21.7-.7 21.7-.8 21.7Z"/><path class="cls-13" d="M188.8 192.5s10.8.8 12.7 3.6 4.9 11 3.8 11a2.8 2.8 0 0 1-1.9-.6l-2.9-5.2s.5 5-1.3 5.1-10.5 1.8-10.5 1.8Z"/><path class="cls-8" d="M132.8 180.6v27.7a10.5 10.5 0 0 0 12.8 9.7l43.4-8.9v-17.8l-37.4 7.2-.5-18.8Z"/><path class="cls-7" d="m157.5 215.8.6-.2 1.7-.4 6.4-1.3 22.6-4.6-.2.3v-18.3l.4.3-7.6 1.5-29.8 5.7h-.3v-.3l.7-20 .2-5.6.1-1.5.1-.5v2l-.1 5.6-.5 20-.3-.3 29.8-5.8 7.6-1.5h.4v18.9h-.2l-22.6 4.4-6.4 1.2-1.7.3ZM182.4 143.5l.2.4a10.4 10.4 0 0 1 .3 1.2 11 11 0 0 1-.2 4.7 11.9 11.9 0 0 1-3.8 5.8 11.7 11.7 0 0 1-7.9 3 10.5 10.5 0 0 1-7.8-3.2 10.4 10.4 0 0 1-2.9-6.3 10 10 0 0 1 .5-4.6 3.6 3.6 0 0 1 .6-1.1l.3-.4-.6 1.6a10.2 10.2 0 0 0-.3 4.5 10.6 10.6 0 0 0 2.9 5.9 9.9 9.9 0 0 0 7.4 2.9 11.4 11.4 0 0 0 7.5-2.8 12.2 12.2 0 0 0 3.7-5.5 10.7 10.7 0 0 0 .4-4.5l-.3-1.6Z"/><path class="cls-12" d="M184.5 210.6a9.8 9.8 0 0 1 0-2.7l.2-6.6c.1-2.6 0-4.9-.1-6.6a18.9 18.9 0 0 1 0-2.7 7.9 7.9 0 0 1 .4 2.7 59.9 59.9 0 0 1 .3 6.6c0 2.6-.2 4.9-.3 6.6ZM182.2 211a11.7 11.7 0 0 1-.1-2.7l.1-6.5v-6.5a11.7 11.7 0 0 1 .1-2.7 10.3 10.3 0 0 1 .3 2.7l.2 6.6a56.7 56.7 0 0 1-.3 6.5 6.5 6.5 0 0 1-.3 2.6Z"/><path class="cls-14" d="m225.6 321.2 8.2 22.6 11.6 16a2.4 2.4 0 0 1-.7 3.5 2.5 2.5 0 0 1-2.2.2c-4.7-1.9-21.9-9.2-22.4-10.9s-11.7-26.2-11.7-26.2Z"/><g class="cls-15"><path class="cls-1" d="m244.8 363.3-25.2-12.2.4.9a3.5 3.5 0 0 0 1.7 1.9c2.1 1.1 7.9 4.1 20.9 9.5a2.2 2.2 0 0 0 2.2-.1Z"/></g><g class="cls-15"><path class="cls-1" d="M221.3 342.1a1.6 1.6 0 0 1 1.1 1.7 1.4 1.4 0 0 1-1.6 1.1c-.7-.2-1.4-1.1-1.1-1.8s1.2-1.3 1.8-.9"/></g><path class="cls-7" d="M235.9 355.5c.2 0 .2-1.4 1.3-2.5s2.4-1.3 2.4-1.5-.4-.1-.9 0a4.2 4.2 0 0 0-1.9 1.1 3.8 3.8 0 0 0-1 2c-.1.5 0 .9.1.9ZM238.6 357.9c.1.1.6-1 1.6-1.7a10.3 10.3 0 0 1 2.1-1.1 2.9 2.9 0 0 0-2.4.7 2.6 2.6 0 0 0-1.3 2.1ZM231.4 352.8a18.9 18.9 0 0 1 2.3-2.8c1.5-1.4 3.1-1.9 3-2.1a5.7 5.7 0 0 0-3.4 1.7 6 6 0 0 0-1.9 3.2ZM228.3 346.2c.1.1 1.1-.9 2.7-1.6s3-.8 3-1a4.8 4.8 0 0 0-3.2.5 4.9 4.9 0 0 0-2.5 2.1ZM225.8 339.6a13.1 13.1 0 0 1 2.8-1.7 10.5 10.5 0 0 1 3.3-.4c0-.1-.3-.2-1-.3a4.7 4.7 0 0 0-2.5.3 5.8 5.8 0 0 0-2.1 1.3c-.4.4-.6.8-.5.8ZM228 336.6a2.3 2.3 0 0 0-.3-.9 7.4 7.4 0 0 0-1.5-2 2.7 2.7 0 0 0-1.6-.8 1.1 1.1 0 0 0-1 .6 1.4 1.4 0 0 0 0 1.1 3.5 3.5 0 0 0 4 1.9 3.8 3.8 0 0 0 2.9-3.4 1.2 1.2 0 0 0-.4-1.1.9.9 0 0 0-1.1-.1 4.7 4.7 0 0 0-1.2 1.3 8.8 8.8 0 0 0-.9 2.3q-.2.9 0 .9a9.4 9.4 0 0 1 1.2-3 2.9 2.9 0 0 1 1.1-1.1c.2-.1.5-.1.6.1l.2.7a3.5 3.5 0 0 1-2.6 2.9 2.9 2.9 0 0 1-3.4-1.6 2.5 2.5 0 0 1-.1-.8.5.5 0 0 1 .5-.3 2.7 2.7 0 0 1 1.4.7 7.2 7.2 0 0 1 2.2 2.6Z"/><path class="cls-14" d="m260.2 315.3-.7 18.3s18.4 6.9 18.6 10.3h-35.6v-28.7Z"/><g class="cls-15"><path class="cls-1" d="M248.5 332.1a1.5 1.5 0 0 0-1 1.7 1.3 1.3 0 0 0 1.6 1 1.6 1.6 0 0 0 1.1-1.8 1.5 1.5 0 0 0-1.8-.9"/></g><g class="cls-15"><path class="cls-1" d="M242.5 343.8v-2.9l34.2 1.1s1.6.7 1.4 1.8Z"/></g><path class="cls-7" d="M260.1 333.5c0 .2-.9.3-1.7.8s-1.3 1.3-1.5 1.2.1-1.1 1.2-1.7 2-.5 2-.3ZM263.8 335c0 .2-.7.5-1.3 1.2a12.9 12.9 0 0 0-.9 1.5c-.2 0-.3-1 .5-1.9s1.7-1 1.7-.8ZM266 339.5c-.2 0-.4-.8.1-1.8s1.3-1.3 1.3-1.2l-.8 1.4c-.4.7-.5 1.6-.6 1.6ZM259.8 329.3c-.1.2-.9-.1-1.9 0s-1.7.4-1.8.2.6-.8 1.8-.8 2 .4 1.9.6Z"/><path d="m260.1 318.9-.1 3.3-17.5-.2v-3l17.6-.1z" class="cls-3"/><path class="cls-7" d="M259.9 325.6c0 .1-.7.2-1.8 0l-1.9-.6-1-.5a1 1 0 0 1-.5-.4.7.7 0 0 1-.1-.9.9.9 0 0 1 .8-.4h.7l1.1.4a5 5 0 0 1 1.6 1.1c.8.8 1.1 1.4 1 1.5s-.5-.5-1.3-1.1l-1.6-.9-1-.3c-.4-.1-.7-.1-.8.1v.2l.4.3.9.5 1.7.7a4 4 0 0 1 1.8.3Z"/><path class="cls-7" d="M259.7 325.8c-.1 0-.4-.6-.5-1.7a7.5 7.5 0 0 1 .2-2 5.4 5.4 0 0 1 .5-1.1 1.5 1.5 0 0 1 1.1-.9.8.8 0 0 1 .7.5 6.4 6.4 0 0 1 .2.7 2.4 2.4 0 0 1 0 1.2 3 3 0 0 1-.8 1.8 3.1 3.1 0 0 1-1.4 1.1c-.1-.1.5-.4 1.1-1.3a3.8 3.8 0 0 0 .6-1.7v-1c-.1-.4-.2-.7-.3-.6s-.5.3-.6.6a3 3 0 0 0-.4 1 14.9 14.9 0 0 0-.4 1.8c-.1.9.1 1.6 0 1.6Z"/><path class="cls-16" d="m242.5 227.4-48.9 5 3.8 34.2s41-10.8 40.7-10 1.9 72.9 1.9 72.9h24.7l.5-81.5a20.6 20.6 0 0 0-22.7-20.6Z"/><path class="cls-16" d="M143.2 241.2v10.6c0 7.2 8.2 14.9 15.5 14.9h5.6a32 32 0 0 0 14.9-5.8l2.1-1.6 25.7 79.6s29.4-5.3 29.4-6.2-19.9-65.2-29.1-95a22.7 22.7 0 0 0-28.9-15.1l-1.2.5c-13.2 5.2-34 18.1-34 18.1Z"/><path class="cls-11" d="M236.4 332.7a.4.4 0 0 1-.1-.3 4.6 4.6 0 0 1-.3-.9l-1.2-3.3-4-12.3-12.5-40.6-6.7-22.4-2.9-9.8-1.3-4.4a37.6 37.6 0 0 0-1.3-4 16.5 16.5 0 0 0-4.2-5.9 44.7 44.7 0 0 0-4.3-3.4l-2.9-1.9-.8-.5-.3-.2h.3l.8.4 3 1.8a33.4 33.4 0 0 1 4.4 3.3 16.3 16.3 0 0 1 4.3 6 39.3 39.3 0 0 1 1.4 4.1l1.4 4.4 3 9.8L219 275l12.3 40.7 3.8 12.3 1.1 3.3.3.9ZM242.6 246.4c.2.1-1.2 2.2-2.4 5.1s-1.7 5.3-1.9 5.3.1-2.6 1.3-5.5 2.8-5 3-4.9ZM247.3 249.7c.1.2-2.1 1.1-4.3 2.9s-3.6 3.6-3.8 3.5a14.5 14.5 0 0 1 8.1-6.4ZM207.2 338.9c-.2.1-7.1-21.2-15.5-47.6s-15.1-47.7-14.9-47.8 7.1 21.2 15.5 47.6 15.1 47.8 14.9 47.8ZM175.7 214.8l84.1.8 15.7-44.4-61.2.5-14.2 39.8-24.4.4v2.9z"/><path class="cls-1" d="M239.5 197.2a3.4 3.4 0 1 1 3.8-2.9 3.3 3.3 0 0 1-3.8 2.9Z"/><path class="cls-7" d="M168.8 94.8c.8-2.9 3-4.4 5.9-5.4a9.6 9.6 0 0 1 8.7 1.4c1.6 1.2 2.9 3 4.8 3.7s6.9-1.3 9.9.2a4.4 4.4 0 0 1 2.4 5 4.5 4.5 0 0 1-4.4 3.3c2.1.8 2.7 3.7 1.5 5.6a5.9 5.9 0 0 1-5.9 2.1 11.6 11.6 0 0 1-5.7-3.2c-1.6-1.5-3.1-3.1-4.9-4.5s-3.9-2.4-6.1-2.2-5.5 2.4-6.9 5.1a23.3 23.3 0 0 0-1.8 8.7c-.2 3-.2 6-1.1 8.9-.1.3-.3.7-.6.8s-.9-.4-1.1-.8a44.2 44.2 0 0 1-5-16.3c-.3-3.3-.3-6.4 1.6-9.2s6.5-5 8.7-3.2"/><path class="cls-13" d="m163.1 108.6-1.5 33.5c-.3 5.7.5 14.1 9.5 14.1 7.8-.6 10.1-7.9 10.4-13.2l.2-4.9c0-.3 8.6-.4 9.6-8.8.5-4.1.8-12.5 1-20.2A15.8 15.8 0 0 0 178.2 93h-.8c-8.9-.5-14.1 6.8-14.3 15.6Z"/><path class="cls-17" d="M181.7 138a19.1 19.1 0 0 1-10.6-4.3s1.9 6.3 10.4 6.5Z"/><path class="cls-7" d="M189.2 114.5a1.2 1.2 0 0 1-1.3 1.1 1.1 1.1 0 0 1-1.1-1.2 1.2 1.2 0 0 1 1.3-1.1 1.1 1.1 0 0 1 1.1 1.2ZM190 113.1c-.2.1-1-.6-2.3-.8s-2.3.4-2.4.2.1-.3.6-.6a3 3 0 0 1 2-.4 3.4 3.4 0 0 1 1.8.8c.3.4.4.7.3.8ZM176.5 113.6a1.2 1.2 0 0 1-1.3 1.1 1.1 1.1 0 0 1-1.1-1.2 1.2 1.2 0 0 1 1.3-1.1 1.2 1.2 0 0 1 1.1 1.2ZM177.3 112c-.2.1-1-.6-2.3-.8s-2.3.4-2.4.2.1-.3.6-.6a3 3 0 0 1 2-.4 3.4 3.4 0 0 1 1.8.8c.2.4.4.7.3.8ZM180.9 122l2.1-.2c.3 0 .7 0 .7-.3a1.9 1.9 0 0 0-.1-1l-.7-2.6a48.4 48.4 0 0 1-1.5-6.8c.2 0 1.1 3 2 6.7l.7 2.6a1.5 1.5 0 0 1 0 1.3.8.8 0 0 1-.6.4h-.6a4.4 4.4 0 0 1-2-.1ZM177 122.5c.2 0 .1 1.4 1.2 2.5s2.6 1.1 2.6 1.3-.4.2-1 .2a3.3 3.3 0 0 1-2.2-1 3 3 0 0 1-.9-2.1l.3-.9ZM178.1 106.9c-.2.3-1.4 0-3 .1s-2.8.3-3 0 .2-.5.7-.8a4.6 4.6 0 0 1 2.3-.5 5.2 5.2 0 0 1 2.3.5c.6.3.8.6.7.7ZM189.9 109.3c-.3.3-1.1-.1-2.2-.3s-2 0-2.2-.3.1-.4.5-.7a3.2 3.2 0 0 1 1.8-.3 3 3 0 0 1 1.7.8c.5.3.5.6.4.8Z"/><path class="cls-13" d="M163.1 114.9c-.1-.1-5.6-2.3-6 3.4s5.5 5 5.5 4.8Z"/><path class="cls-17" d="M160.9 120.9h-1.1a2.7 2.7 0 0 1-1-2.3 3.3 3.3 0 0 1 .4-1.4c.2-.4.5-.7.8-.7a.9.9 0 0 1 .6.3l.1.3a.4.4 0 0 0 .1-.3.8.8 0 0 0-.2-.4l-.5-.2a1.5 1.5 0 0 0-1.1.8 3.8 3.8 0 0 0-.5 1.6 2.7 2.7 0 0 0 1.3 2.6 1.3 1.3 0 0 0 .9-.1l.2-.2Z"/><path class="cls-7" d="M194.2 107.6a12.1 12.1 0 0 1-10.5-3.6c-1.9-2-3.2-4.6-5.7-5.7a7 7 0 0 0-5.3.2 13.8 13.8 0 0 0-4.4 3.2c1.2 4.5-.4 9.1-2 13.4a2.9 2.9 0 0 1-.8 1.3c-.7.5-1.7-.1-2.2-.8a7.5 7.5 0 0 1-1.2-3.9 24.5 24.5 0 0 1 1-9.3 16.5 16.5 0 0 1 5.3-7.7 15.1 15.1 0 0 1 11.1-2.9 19.8 19.8 0 0 1 10.5 5 11.4 11.4 0 0 1 3.1 4.4"/><path class="cls-14" d="M32.5 285.5a16 16 0 0 1 9.7-1.2 8.1 8.1 0 0 1 4.8 2.1 3.4 3.4 0 0 1 0 4.8 4.6 4.6 0 0 1-3 .8c-2.6 0-5.4-.5-7.5 1.1s-1.9 2.3-3.3 2.8a3.3 3.3 0 0 1-3.6-1.6 6 6 0 0 1-.4-4.2 5.7 5.7 0 0 1 3.3-4.6ZM25.7 272.4c1.8 2.6 5.3 1.7 6.9.2s2.3-3.9 2.9-6c1.4-5 2.9-10.2 1.8-15.2a8.6 8.6 0 0 0-1.9-4.1 4.5 4.5 0 0 0-4.2-1.4c-1.8.5-2.9 2.2-3.7 3.8a36.4 36.4 0 0 0-3.6 15.6c.1 2.4.4 5.1 1.8 7.1M20.7 276.1c2-2.3 2.3-5.7 1.5-8.6a16.5 16.5 0 0 0-5.1-7.4 28.1 28.1 0 0 0-9.1-5.4 9.6 9.6 0 0 0-4.1-.7 4.3 4.3 0 0 0-3.5 2.1c-1 1.8 0 4.1 1 5.9a71.6 71.6 0 0 0 6 9.1c1.8 2.3 3.9 4.6 6.6 5.7s5.6.9 7.1-1"/><path class="cls-7" d="M25.6 311.3a11.3 11.3 0 0 0 .2-1.2l.3-3.2a33.5 33.5 0 0 1 .7-4.7 48.5 48.5 0 0 1 1.7-5.5 21.7 21.7 0 0 1 2.8-5 10.9 10.9 0 0 1 3.6-3 9.6 9.6 0 0 1 3-.9l1.2-.2h-1.2a8.8 8.8 0 0 0-3.1.8 11.4 11.4 0 0 0-3.8 3 19.4 19.4 0 0 0-2.9 5.1 32.3 32.3 0 0 0-1.7 5.6 31.8 31.8 0 0 0-.6 4.7l-.2 3.2v1.3Z"/><path class="cls-7" d="M25.8 308.8v-2.1l.1-5.7a229.2 229.2 0 0 1 4.2-37.4l.7-3.2.6-2.4a15.5 15.5 0 0 1 .4-1.5 1.8 1.8 0 0 0 .1-.5l-.2.5-.5 1.5a20.8 20.8 0 0 0-.6 2.4l-.8 3.2a165.1 165.1 0 0 0-3 18.6 183.3 183.3 0 0 0-1.2 18.8l.1 5.7.1 1.6Z"/><path class="cls-7" d="M25.8 296v-1.6l-.5-4.4a54.2 54.2 0 0 0-1.4-6.4 52.1 52.1 0 0 0-2.7-7.6 37.3 37.3 0 0 0-7.9-12.2 14.5 14.5 0 0 0-1.9-1.7l-.8-.7-.7-.5-1.4-.9c-.1.1 1.9 1.3 4.5 4a43.5 43.5 0 0 1 7.7 12.2 64.3 64.3 0 0 1 2.7 7.5 55.6 55.6 0 0 1 1.5 6.3l.6 4.4Z"/><path class="cls-16" d="m13.4 318.7 1.3 17.6h22.7l1.3-17.6H13.4zM11.2 311.7h30.2v7H11.2z"/><path class="cls-11" d="M11.2 335.6v2h29.7v-2H11.2zM14 341l-1.4-3.4h27.2l-1.6 3.4H14z"/><path class="cls-2" d="M38.2 324.4a.3.3 0 0 1-.1.2l-.3.4-1.3 1.7h-.2l-3.2-4.5h.2l-3.2 4.5h-.2l-3.8-4.5h.2l-.2.3-3.4 4.2h-.2l-3.2-4.5h.2l-3.9 4.5h-.2l-1.2-2.1-.3-.6v-.2a.3.3 0 0 1 .1.2l.4.5a21.2 21.2 0 0 0 1.3 2h-.1l3.9-4.5h.2l3.2 4.5h-.2l3.4-4.3.2-.3h.2l3.8 4.5H30l3.2-4.5h.2l3.2 4.5h-.1l1.4-1.6.4-.4c-.1.1-.1 0-.1 0Z"/><path class="cls-16" d="m39 318.5-12.7.1H13.6l12.7-.1Z"/><path class="cls-7" d="M40.1 337.8H12.5l13.8-.1 13.8.1ZM308.3 134.5l-15.8 65.9h4.4l15.6-65.9h-4.2z"/><path class="cls-7" d="M302.2 177.9c-.3 1.2 7.1 37.1 7.1 37.1h-3.6l-5.6-28.5Z"/><path class="cls-8" d="M280.9 262.5h73.8v78.3h-73.8z"/><path class="cls-7" d="M354.7 274h3.6v3.6h-3.6zM354.7 285.5h3.6v3.6h-3.6zM354.7 297h3.6v3.6h-3.6zM354.7 308.5h3.6v3.6h-3.6zM358.5 298l1.1-.2a20.2 20.2 0 0 1 3.1-.3 8 8 0 0 1 4.5 1.2 5.2 5.2 0 0 1 1.9 2 4.9 4.9 0 0 1 .6 2.9 6.6 6.6 0 0 1-.9 2.8 7.3 7.3 0 0 1-1.9 2 10.2 10.2 0 0 1-4.3 1.7 11.2 11.2 0 0 1-3.1.1l-1.1-.2h1.1a19.6 19.6 0 0 0 3.1-.2 9 9 0 0 0 4.1-1.7 6.4 6.4 0 0 0 2.7-4.6 4.9 4.9 0 0 0-.5-2.7 5.5 5.5 0 0 0-1.8-1.9 8 8 0 0 0-4.3-1.2l-3.1.2-1.2.1Z"/><path class="cls-7" d="m357.6 286.6.3-.2 1.1-.4a8 8 0 0 1 4.2-.2 4.8 4.8 0 0 1 1.4.5 2.7 2.7 0 0 1 1 1.3 3.7 3.7 0 0 1-.8 3.3 3.3 3.3 0 0 1-1.5 1.1 2.8 2.8 0 0 1-2-.1 2 2 0 0 1-1.1-1.7 2 2 0 0 1 1.2-1.8 3.1 3.1 0 0 1 2.1-.2 3.8 3.8 0 0 1 1.8.9 5 5 0 0 1 1.8 3.3 5.3 5.3 0 0 1-.9 3.3 5.9 5.9 0 0 1-2.3 1.9 11.4 11.4 0 0 1-4.1 1.1h-1.6l1.5-.2a9.7 9.7 0 0 0 4-1.2 5.4 5.4 0 0 0 2.1-1.9 3.9 3.9 0 0 0 .8-3 4.4 4.4 0 0 0-1.7-3 3.4 3.4 0 0 0-1.7-.8 2.8 2.8 0 0 0-1.8.2 1.5 1.5 0 0 0-.9 1.4 1.7 1.7 0 0 0 .9 1.4 2 2 0 0 0 1.7.1 4.5 4.5 0 0 0 1.4-1 3.6 3.6 0 0 0 .8-2.9 2.3 2.3 0 0 0-2-1.6 7.8 7.8 0 0 0-4.1.1 4.8 4.8 0 0 0-1.6.3Z"/><path class="cls-7" d="M357.6 275.4h.8a6.1 6.1 0 0 1 5 2.2 6.1 6.1 0 0 1 1.4 3.8 6.2 6.2 0 0 1-1.2 3.9 6.5 6.5 0 0 1-2.6 2 5.1 5.1 0 0 1-2.2.4h-.8a9.6 9.6 0 0 0 2.9-.6 6.3 6.3 0 0 0 2.4-2 6.4 6.4 0 0 0 1.1-3.6 5.5 5.5 0 0 0-1.3-3.6 6.1 6.1 0 0 0-2.6-1.8 7.7 7.7 0 0 0-2.9-.7Z"/><path class="cls-7" d="M302.8 220.9a7.2 7.2 0 0 1 .6 1.5 33.3 33.3 0 0 1 1 4.4c.3 2 .6 4.4.8 7.2l.9 9.5.4 2.7a13.8 13.8 0 0 0 .8 2.7 7.6 7.6 0 0 0 1.8 2.2 10.8 10.8 0 0 0 2.4 1.8 13.4 13.4 0 0 0 6 2 12.1 12.1 0 0 0 6.5-1.1 7.8 7.8 0 0 0 4.2-5.3 5.9 5.9 0 0 0-.2-3.5 6.2 6.2 0 0 0-2.3-2.8 7 7 0 0 0-3.5-1.2 6.2 6.2 0 0 0-3.5 1 5.3 5.3 0 0 0-1.2 1.4 2.3 2.3 0 0 0-.2 1.8 4.4 4.4 0 0 0 2.3 2.9 9.7 9.7 0 0 0 3.8 1l3.9.3c1.3.1 5.2-.2 7.7-.4 5-.6 9.9-1.4 14.6-1.4a27.8 27.8 0 0 1 13 2.5 13.5 13.5 0 0 1 4.8 3.6 11.3 11.3 0 0 1 2.5 5 13.5 13.5 0 0 1-1.4 9.3 15.5 15.5 0 0 1-4.9 5.2 19.9 19.9 0 0 1-4.1 2.1l-1.5.5h.4l1.1-.4a19.6 19.6 0 0 0 4-2.1 16.3 16.3 0 0 0 4.8-5.2 13.1 13.1 0 0 0 1.3-9.1 10.6 10.6 0 0 0-2.5-4.8 16.5 16.5 0 0 0-4.7-3.5 28.2 28.2 0 0 0-12.8-2.4c-4.7.1-9.5.9-14.6 1.4a49.7 49.7 0 0 1-7.8.4l-4-.3a10.9 10.9 0 0 1-3.9-1.1 5 5 0 0 1-2.5-3.2 3.9 3.9 0 0 1 .3-2.1 5.1 5.1 0 0 1 1.3-1.6 5.8 5.8 0 0 1 3.8-1.1 8.1 8.1 0 0 1 3.7 1.2 5.9 5.9 0 0 1 2.4 3 7 7 0 0 1 .3 3.8 8.4 8.4 0 0 1-4.4 5.6 12.1 12.1 0 0 1-6.7 1.2 14.3 14.3 0 0 1-6.1-2.1 15.5 15.5 0 0 1-2.4-1.9 10.6 10.6 0 0 1-1.9-2.3 13.8 13.8 0 0 1-.8-2.7 25.1 25.1 0 0 1-.4-2.7l-.9-9.5-.7-7.1a29.6 29.6 0 0 0-.9-4.4 4.3 4.3 0 0 0-.4-1.1 3.1 3.1 0 0 0-.2-.8Z"/><path class="cls-7" d="M350.5 337.5v-19.9l-.1-52 .2.2h-66.7l.2-.2v71.9l-.2-.2h-.3v-72h67.1v.2l-.1 52.1V337a2.8 2.8 0 0 0-.1.5Z"/><path class="cls-7" d="M331.7 274.4a.3.3 0 1 1-.3-.3.3.3 0 0 1 .3.3ZM333.6 274.4a.3.3 0 1 1-.3-.3ZM335.5 274.4a.3.3 0 1 1-.3-.3.5.5 0 0 1 .3.3ZM337.4 274.4a.3.3 0 1 1-.3-.3ZM339.3 274.4a.3.3 0 1 1-.3-.3.5.5 0 0 1 .3.3ZM341.1 274.4a.3.3 0 1 1-.3-.3.3.3 0 0 1 .3.3ZM343 274.4a.3.3 0 1 1-.3-.3.3.3 0 0 1 .3.3Z"/><circle class="cls-7" cx="341.8" cy="275.7" r=".3"/><circle class="cls-7" cx="339.9" cy="275.7" r=".3"/><path class="cls-7" d="M338.3 275.7a.3.3 0 1 1-.3-.3.3.3 0 0 1 .3.3Z"/><circle class="cls-7" cx="336" cy="275.7" r=".3"/><circle class="cls-7" cx="334.1" cy="275.7" r=".3"/><path class="cls-7" d="M332.5 275.7a.3.3 0 1 1-.3-.3.3.3 0 0 1 .3.3ZM331.7 277.1a.3.3 0 1 1-.3-.3.3.3 0 0 1 .3.3ZM333.6 277.1a.3.3 0 1 1-.3-.3.5.5 0 0 1 .3.3ZM335.5 277.1a.3.3 0 1 1-.3-.3.5.5 0 0 1 .3.3ZM337.4 277.1a.3.3 0 1 1-.3-.3.5.5 0 0 1 .3.3ZM339.3 277.1a.3.3 0 1 1-.3-.3.5.5 0 0 1 .3.3ZM341.1 277.1a.3.3 0 1 1-.3-.3.3.3 0 0 1 .3.3ZM343 277.1a.3.3 0 1 1-.3-.3.3.3 0 0 1 .3.3ZM342.2 278.4a.3.3 0 0 1-.3.3.5.5 0 0 1-.3-.3.3.3 0 1 1 .6 0ZM340.2 278.4a.3.3 0 1 1-.3-.3.3.3 0 0 1 .3.3ZM338.3 278.4a.3.3 0 1 1-.3-.3.3.3 0 0 1 .3.3ZM336.4 278.4a.3.3 0 1 1-.3-.3.3.3 0 0 1 .3.3ZM334.4 278.4a.3.3 0 1 1-.3-.3.3.3 0 0 1 .3.3ZM332.5 278.4a.3.3 0 1 1-.3-.3.3.3 0 0 1 .3.3ZM331.7 279.8a.3.3 0 1 1-.3-.3.3.3 0 0 1 .3.3ZM333.6 279.8a.3.3 0 1 1-.3-.3.5.5 0 0 1 .3.3ZM335.5 279.8a.3.3 0 1 1-.3-.3.5.5 0 0 1 .3.3ZM337.4 279.8a.3.3 0 1 1-.3-.3.5.5 0 0 1 .3.3ZM339.3 279.8a.3.3 0 1 1-.3-.3.5.5 0 0 1 .3.3ZM341.1 279.8a.3.3 0 1 1-.3-.3.3.3 0 0 1 .3.3ZM343 279.8a.3.3 0 1 1-.3-.3.3.3 0 0 1 .3.3Z"/><circle class="cls-7" cx="341.8" cy="281.1" r=".3"/><circle class="cls-7" cx="339.9" cy="281.1" r=".3"/><path class="cls-7" d="M338.3 281.1a.3.3 0 1 1-.3-.3.3.3 0 0 1 .3.3Z"/><circle class="cls-7" cx="336" cy="281.1" r=".3"/><circle class="cls-7" cx="334.1" cy="281.1" r=".3"/><path class="cls-7" d="M332.5 281.1a.3.3 0 1 1-.3-.3.3.3 0 0 1 .3.3Z"/><path class="cls-2" d="m305.6 197.1 1.3.2a8.5 8.5 0 0 1 3.3 2.1 13.6 13.6 0 0 1 2.9 5.5 50.1 50.1 0 0 1 1.8 8 97.7 97.7 0 0 1 .5 21.3 11.8 11.8 0 0 1-1.9 5.9 8.4 8.4 0 0 1-2.3 2.3 5.1 5.1 0 0 1-3.2.8 5.5 5.5 0 0 1-3.1-1.4 3.8 3.8 0 0 1-.9-1.5 2.8 2.8 0 0 1 0-1.8 3.7 3.7 0 0 1 2.3-2.6 2.8 2.8 0 0 1 1.8 0 3.3 3.3 0 0 1 1.5 1.1 4.3 4.3 0 0 1 .8 3.4 9.3 9.3 0 0 1-1.2 3.3 13.5 13.5 0 0 1-4.7 4.8 12.8 12.8 0 0 1-12.3.2 14.1 14.1 0 0 1-4.5-3.9 16.9 16.9 0 0 1-2.7-4.9 29.6 29.6 0 0 1-1.8-9.8c-.2-3 0-5.8-.3-8.2a13.6 13.6 0 0 0-.8-3.2 8.9 8.9 0 0 0-1.4-2.4 7.2 7.2 0 0 0-3.1-2.3 4.1 4.1 0 0 0-1.3-.3l1.3.2a7.1 7.1 0 0 1 3.2 2.2 9.5 9.5 0 0 1 1.4 2.4 11.4 11.4 0 0 1 .8 3.3c.3 2.4.2 5.2.4 8.2a35.7 35.7 0 0 0 1.8 9.7 17.8 17.8 0 0 0 2.7 4.8 13.2 13.2 0 0 0 4.4 3.7 12.3 12.3 0 0 0 11.9-.2 12.7 12.7 0 0 0 4.6-4.6 8.9 8.9 0 0 0 1.1-3.1 3.8 3.8 0 0 0-.7-3.1 3.2 3.2 0 0 0-1.3-1 1.9 1.9 0 0 0-1.5 0 3.3 3.3 0 0 0-2 2.3 3.2 3.2 0 0 0 .8 2.9 4.3 4.3 0 0 0 2.8 1.3 5.3 5.3 0 0 0 3-.7 7.3 7.3 0 0 0 2.2-2.1 11.9 11.9 0 0 0 1.8-5.7 111.8 111.8 0 0 0-.4-21.2 65.2 65.2 0 0 0-1.7-8 13.1 13.1 0 0 0-2.8-5.4 7.1 7.1 0 0 0-3.2-2.2Z"/><path class="cls-2" d="M271.6 209.1h27.5v5.2h-27.5z"/><path class="cls-16" d="M64.9 263.2h35.8v77.2H64.9z"/><path class="cls-11" d="M97.7 332.3v-5l-.1-13.8-.1-47.6.2.2h-30l.2-.2-.1 66.4-.2-.2h-.1v-.2l-.1-66.4v-.2h30.4v.2l-.1 47.7-.1 13.7v4.6a2.8 2.8 0 0 1 .1.8Z"/><path class="cls-11" d="M95.8 271.5v-.8a18.6 18.6 0 0 0-.1-2.2h-26l.2-.2v2.9l-.2-.2h-.2v-3.1l.2-.2h26.2a14.8 14.8 0 0 1-.1 2.3ZM72.4 273.7c0 .1-.5.2-1.2.2s-1.2-.1-1.2-.2.5-.2 1.2-.2ZM95.1 277.7c0 .1-5.6.2-12.4.2s-12.4-.1-12.4-.2 5.6-.2 12.4-.2 12.4.1 12.4.2ZM95.2 282.5c0 .1-5.5.2-12.2.2s-12.2-.1-12.2-.2 5.5-.2 12.2-.2 12.2.1 12.2.2Z"/><circle class="cls-8" cx="82.7" cy="293.7" r="2"/><path class="cls-11" d="M77.2 293.7a9.3 9.3 0 0 1-2.6.2 8.7 8.7 0 0 1-2.6-.2 9.3 9.3 0 0 1 2.6-.2c1.4-.1 2.6 0 2.6.2ZM93.2 293.1a8.3 8.3 0 0 1-2.5.2 8.3 8.3 0 0 1-2.5-.2 8.3 8.3 0 0 1 2.5-.2 8.8 8.8 0 0 1 2.5.2Z"/><path class="cls-7" d="m66.1 302-1.3-.2a11.4 11.4 0 0 1-3.5-1.6 14.4 14.4 0 0 1-4.3-4.5 24.1 24.1 0 0 1-3.1-7.6 31.1 31.1 0 0 1-1-9.9 19.4 19.4 0 0 1 3.8-10.7 18.5 18.5 0 0 1 4.5-4.3 11.1 11.1 0 0 1 2.9-1.4 16.7 16.7 0 0 1 3.2-.8c2.2-.3 4.4-.3 6.7-.4a16.3 16.3 0 0 0 6.5-1.5 7.6 7.6 0 0 0 4.1-5 7.1 7.1 0 0 0-7-8.6 5.6 5.6 0 0 0-2.8 1 3.2 3.2 0 0 0-1.2 2.5 4.1 4.1 0 0 0 3.7 3.6 6.3 6.3 0 0 0 4.7-2.1 11.3 11.3 0 0 0 2.3-4.5l1-4.6a72.4 72.4 0 0 0 .4-14.3l-.2-3.9v-1l.1 1 .3 3.9a72 72 0 0 1-.3 14.4 43 43 0 0 1-.9 4.7 11.7 11.7 0 0 1-2.3 4.6 6.6 6.6 0 0 1-5 2.3 4.5 4.5 0 0 1-4.1-3.9 3.3 3.3 0 0 1 1.3-2.8 5.2 5.2 0 0 1 3-1.1 7.2 7.2 0 0 1 5.8 2.6 7.4 7.4 0 0 1 .1 9.5 8.8 8.8 0 0 1-2.8 2.2 17.8 17.8 0 0 1-6.7 1.6c-2.3.1-4.5.1-6.6.4a15.5 15.5 0 0 0-3.1.7 14.7 14.7 0 0 0-2.8 1.4 17.6 17.6 0 0 0-4.4 4.2 19.4 19.4 0 0 0-3.7 10.5 30.9 30.9 0 0 0 .9 9.8 24.5 24.5 0 0 0 3 7.5 16.8 16.8 0 0 0 4.2 4.5 12.1 12.1 0 0 0 3.5 1.7l1 .2c0-.2.1-.1.1-.1Z"/><path class="cls-16" d="M53.9 143.5h84.9v58.3H53.9z"/><path class="cls-16" d="M89.8 193.9h11.6v22H89.8z"/><path class="cls-16" d="M62.4 215v7.9h43.8v117.9h4V222.9l182.9.9v117h4V223.6l28.2.2v-9.5l-262.9.7z"/><path class="cls-7" d="m90.4 221.4 17.3 12.4-1.5 1.5-17.5-13.1 1.7-.8zM313.3 222.6l-20 14.2 1.5 1.5 20.2-15-1.7-.7z"/><path class="cls-16" d="M126 212.1h45.3v3.3H126z"/></g></g></svg>